<svg xmlns="http://www.w3.org/2000/svg" xmlns:xlink="http://www.w3.org/1999/xlink" preserveAspectRatio="xMidYMid" width="191" height="46" viewBox="0 0 191 46">
  <defs>
    <style>
      .cls-1 {
        fill: #fff;
        fill-rule: evenodd;
      }

      .cls-2 {
        fill: #4a518d;
      }
    </style>
  </defs>
  <path d="M0.000,7.229 L0.000,0.345 L190.135,0.345 L190.135,7.229 L0.000,7.229 ZM5.792,22.003 C6.824,22.003 7.803,22.351 8.480,23.260 C9.368,24.457 9.272,26.174 9.272,27.188 L9.272,29.546 L7.012,29.546 L7.012,26.335 C7.012,25.840 7.012,25.135 6.672,24.704 C6.483,24.500 6.181,24.273 5.697,24.273 C5.203,24.273 4.891,24.500 4.714,24.704 C4.378,25.135 4.378,25.840 4.378,26.335 L4.378,39.210 C4.378,40.322 4.404,40.903 4.631,41.263 C4.714,41.449 5.026,41.822 5.632,41.822 C6.240,41.822 6.550,41.449 6.643,41.263 C6.855,40.903 6.885,40.322 6.885,39.210 L6.885,35.685 L9.272,35.685 L9.272,39.297 C9.272,41.150 8.936,42.123 8.573,42.688 C8.168,43.264 7.317,44.091 5.662,44.091 C4.105,44.091 3.218,43.264 2.786,42.643 C1.952,41.449 1.992,39.735 1.992,38.661 L1.992,26.882 C1.992,25.624 2.017,24.404 2.786,23.354 C3.218,22.771 4.133,22.003 5.792,22.003 ZM26.713,22.311 L29.403,43.785 L26.958,43.785 L26.539,39.819 L23.843,39.819 L23.411,43.785 L20.958,43.785 L23.657,22.311 L26.713,22.311 ZM26.312,37.551 L25.208,26.937 L25.150,26.905 L24.050,37.551 L26.312,37.551 ZM43.756,31.051 L46.329,31.051 L46.329,22.311 L48.718,22.311 L48.718,43.785 L46.329,43.785 L46.329,33.314 L43.756,33.314 L43.756,43.785 L41.377,43.785 L41.377,22.311 L43.756,22.311 L43.756,31.051 ZM68.671,24.594 L65.847,24.594 L65.847,43.785 L63.463,43.785 L63.463,24.594 L60.654,24.594 L60.654,22.311 L68.671,22.311 L68.671,24.594 ZM86.870,24.594 L82.957,24.594 L82.957,31.297 L85.466,31.297 L85.466,33.573 L82.957,33.573 L82.957,41.516 L86.870,41.516 L86.870,43.785 L80.566,43.785 L80.566,22.311 L86.870,22.311 L86.870,24.594 ZM98.382,22.311 L101.005,22.311 L102.571,28.352 L102.634,29.020 L102.692,29.020 L102.748,28.352 L104.318,22.311 L106.938,22.311 L103.859,32.458 L107.279,43.785 L104.656,43.785 L102.814,37.280 L102.692,36.427 L102.634,36.427 L102.512,37.280 L100.667,43.785 L98.044,43.785 L101.472,32.494 L98.382,22.311 ZM121.562,31.051 L124.148,31.051 L124.148,22.311 L126.523,22.311 L126.523,43.785 L124.148,43.785 L124.148,33.314 L121.562,33.314 L121.562,43.785 L119.186,43.785 L119.186,22.311 L121.562,22.311 L121.562,31.051 ZM141.769,32.494 L141.617,34.056 L144.342,25.810 L144.342,22.311 L146.730,22.311 L146.730,43.785 L144.342,43.785 L144.342,32.924 L144.485,31.421 L141.769,39.670 L141.769,43.785 L139.380,43.785 L139.380,22.311 L141.769,22.311 L141.769,32.494 ZM166.279,33.381 C166.738,34.143 166.710,35.047 166.710,35.778 L166.710,41.199 C166.710,41.615 166.764,42.349 166.857,42.705 C166.953,42.984 167.156,43.445 167.316,43.686 L167.316,43.785 L164.713,43.785 C164.443,43.264 164.310,42.705 164.310,42.188 L164.310,35.806 C164.310,35.253 164.350,34.558 163.921,34.086 C163.673,33.847 163.217,33.655 162.785,33.655 L161.934,33.655 L161.934,43.785 L159.546,43.785 L159.546,22.311 L161.934,22.311 L161.934,31.381 L162.729,31.381 C163.468,31.381 163.892,30.743 163.892,30.041 L163.892,24.794 C163.892,24.031 163.955,23.079 164.809,22.579 C165.025,22.469 165.420,22.311 166.372,22.311 L167.139,22.311 L167.139,24.762 L166.668,24.794 C166.372,24.824 166.158,25.135 166.158,25.660 L166.158,30.312 C166.158,31.537 165.361,32.099 164.995,32.316 L164.995,32.435 C165.643,32.624 166.032,33.019 166.279,33.381 ZM184.086,39.819 L181.390,39.819 L180.966,43.785 L178.514,43.785 L181.210,22.311 L184.272,22.311 L186.968,43.785 L184.515,43.785 L184.086,39.819 ZM182.776,26.937 L182.709,26.905 L181.605,37.551 L183.872,37.551 L182.776,26.937 ZM186.672,117.655 L141.057,117.655 L139.654,117.655 L163.160,76.832 L186.672,117.655 ZM183.859,116.021 L163.160,80.088 L142.466,116.021 L183.859,116.021 Z" class="cls-1"/>
  <rect width="190" height="8" class="cls-2"/>
</svg>
