<?xml version="1.0" encoding="UTF-8" standalone="no"?>
<svg width="123px" height="54px" viewBox="0 0 123 54" version="1.1" xmlns="http://www.w3.org/2000/svg" xmlns:xlink="http://www.w3.org/1999/xlink">
    <!-- Generator: Sketch 3.7.2 (28276) - http://www.bohemiancoding.com/sketch -->
    <title>вусщк</title>
    <desc>Created with Sketch.</desc>
    <defs></defs>
    <g id="Page-1" stroke="none" stroke-width="1" fill="none" fill-rule="evenodd">
        <g id="2.1---collection" transform="translate(-1049.000000, -4305.000000)">
            <g id="RECCOMEND" transform="translate(135.000000, 4305.000000)">
                <g id="header" transform="translate(10.000000, 0.000000)">
                    <g id="вусщк" transform="translate(904.000000, 0.000000)">
                        <rect id="Rectangle-23" x="0" y="0" width="122" height="52"></rect>
                        <polygon id="Page-1" stroke="#A9D7D4" points="1 1.55966561 18.3942255 18 35.6362859 1.70429829 52.8783462 18 70.117912 1.70429829 87.3587251 18 104.600785 1.70429829 121.688186 17.8553673 122 17.437819 104.600785 1 87.3587251 17.290671 70.117912 1 52.8783462 17.290671 35.6362859 1 18.3942255 17.290671 1.31056663 1.14463268"></polygon>
                        <polygon id="Page-1" stroke="#A9D7D4" points="1 6.55966561 18.3942255 23 35.6362859 6.70429829 52.8783462 23 70.117912 6.70429829 87.3587251 23 104.600785 6.70429829 121.688186 22.8553673 122 22.437819 104.600785 6 87.3587251 22.290671 70.117912 6 52.8783462 22.290671 35.6362859 6 18.3942255 22.290671 1.31056663 6.14463268"></polygon>
                        <polygon id="Page-1" stroke="#A9D7D4" points="1 11.5596656 18.3942255 28 35.6362859 11.7042983 52.8783462 28 70.117912 11.7042983 87.3587251 28 104.600785 11.7042983 121.688186 27.8553673 122 27.437819 104.600785 11 87.3587251 27.290671 70.117912 11 52.8783462 27.290671 35.6362859 11 18.3942255 27.290671 1.31056663 11.1446327"></polygon>
                        <polygon id="Page-1" stroke="#A9D7D4" points="1 16.5596656 18.3942255 33 35.6362859 16.7042983 52.8783462 33 70.117912 16.7042983 87.3587251 33 104.600785 16.7042983 121.688186 32.8553673 122 32.437819 104.600785 16 87.3587251 32.290671 70.117912 16 52.8783462 32.290671 35.6362859 16 18.3942255 32.290671 1.31056663 16.1446327"></polygon>
                        <polygon id="Page-1" stroke="#A9D7D4" points="1 21.5596656 18.3942255 38 35.6362859 21.7042983 52.8783462 38 70.117912 21.7042983 87.3587251 38 104.600785 21.7042983 121.688186 37.8553673 122 37.437819 104.600785 21 87.3587251 37.290671 70.117912 21 52.8783462 37.290671 35.6362859 21 18.3942255 37.290671 1.31056663 21.1446327"></polygon>
                        <polygon id="Page-1" stroke="#A9D7D4" points="1 26.5596656 18.3942255 43 35.6362859 26.7042983 52.8783462 43 70.117912 26.7042983 87.3587251 43 104.600785 26.7042983 121.688186 42.8553673 122 42.437819 104.600785 26 87.3587251 42.290671 70.117912 26 52.8783462 42.290671 35.6362859 26 18.3942255 42.290671 1.31056663 26.1446327"></polygon>
                        <polygon id="Page-1" stroke="#A9D7D4" points="1 31.5596656 18.3942255 48 35.6362859 31.7042983 52.8783462 48 70.117912 31.7042983 87.3587251 48 104.600785 31.7042983 121.688186 47.8553673 122 47.437819 104.600785 31 87.3587251 47.290671 70.117912 31 52.8783462 47.290671 35.6362859 31 18.3942255 47.290671 1.31056663 31.1446327"></polygon>
                        <polygon id="Page-1" stroke="#A9D7D4" points="1 36.5596656 18.3942255 53 35.6362859 36.7042983 52.8783462 53 70.117912 36.7042983 87.3587251 53 104.600785 36.7042983 121.688186 52.8553673 122 52.437819 104.600785 36 87.3587251 52.290671 70.117912 36 52.8783462 52.290671 35.6362859 36 18.3942255 52.290671 1.31056663 36.1446327"></polygon>
                    </g>
                </g>
            </g>
        </g>
    </g>
</svg>