<?xml version="1.0" encoding="utf-8"?>
<!-- Generator: Adobe Illustrator 19.0.0, SVG Export Plug-In . SVG Version: 6.00 Build 0)  -->
<svg version="1.1" id="Layer_1" xmlns="http://www.w3.org/2000/svg" xmlns:xlink="http://www.w3.org/1999/xlink" x="0px" y="0px"
	 viewBox="-273 365 64 64" style="enable-background:new -273 365 64 64;" xml:space="preserve">
<style type="text/css">
	.st0{fill:#3B5998;}
	.st1{enable-background:new    ;}
	.st2{fill:#FFFFFF;}
</style>
<title>Group 5</title>
<desc>Created with Sketch.</desc>
<g id="Page-1">
	<g id="_x30_---LOGIN" transform="translate(-593.000000, -507.000000)">
		<g id="popUp---login" transform="translate(345.000000, 148.000000)">
			<g id="LOGIN" transform="translate(0.000000, 181.000000)">
				<g id="btns" transform="translate(248.000000, 90.000000)">
					<g id="Group-5" transform="translate(0.000000, 88.000000)">
						<path id="Rectangle-300" class="st0" d="M-241,365L-241,365c17.7,0,32,14.3,32,32l0,0c0,17.7-14.3,32-32,32l0,0
							c-17.7,0-32-14.3-32-32l0,0C-273,379.3-258.7,365-241,365z"/>
						<g class="st1">
							<path class="st2" d="M-233.3,393v8.6c0,1.4-1.2,2.6-2.6,2.6h-1.7v-5.3h1.8l0.3-2.1h-2v-1.3c0-0.6,0.2-1,1-1l1.1,0v-1.8
								c-0.2,0-0.8-0.1-1.6-0.1c-1.6,0-2.7,1-2.7,2.7v1.5h-1.8v2.1h1.8v5.3h-4.7c-1.4,0-2.6-1.2-2.6-2.6V393c0-1.4,1.2-2.6,2.6-2.6
								h8.6C-234.4,390.4-233.3,391.6-233.3,393z"/>
						</g>
					</g>
				</g>
			</g>
		</g>
	</g>
</g>
</svg>
