<?xml version="1.0" encoding="utf-8"?>
<!-- Generator: Adobe Illustrator 19.0.0, SVG Export Plug-In . SVG Version: 6.00 Build 0)  -->
<svg version="1.1" id="Layer_1" xmlns="http://www.w3.org/2000/svg" xmlns:xlink="http://www.w3.org/1999/xlink" x="0px" y="0px"
	 viewBox="-297 388 16 17" style="enable-background:new -297 388 16 17;" xml:space="preserve">
<style type="text/css">
	.st0{enable-background:new    ;}
	.st1{fill:#F36976;}
</style>
<title></title>
<desc>Created with Sketch.</desc>
<g id="Page-1">
	<g id="_x39_---textPage" transform="translate(-1229.000000, -3881.000000)">
		<g id="CONTENT" transform="translate(127.000000, 979.000000)">
			<g id="info" transform="translate(17.000000, 2885.000000)">
				<g id="Group-10" transform="translate(928.000000, 3.000000)">
					<g id="socialButtons" transform="translate(98.000000, 0.000000)">
						<g id="btn-fb" transform="translate(43.000000, 0.000000)">
							<g class="st0">
								<path class="st1" d="M-265.3,403.5v13.7c0,0.5-0.4,0.9-0.9,0.9h-3.9v-6h2l0.3-2.3h-2.3v-1.5c0-0.7,0.2-1.1,1.2-1.1l1.2,0
									V405c-0.2,0-0.9-0.1-1.8-0.1c-1.8,0-3,1.1-3,3.1v1.7h-2v2.3h2v6h-7.4c-0.5,0-0.9-0.4-0.9-0.9v-13.7c0-0.5,0.4-0.9,0.9-0.9
									h13.7C-265.6,402.6-265.3,403-265.3,403.5z"/>
							</g>
						</g>
					</g>
				</g>
			</g>
		</g>
	</g>
</g>
</svg>
