<?xml version="1.0" encoding="utf-8"?>
<!-- Generator: Adobe Illustrator 19.0.0, SVG Export Plug-In . SVG Version: 6.00 Build 0)  -->
<svg version="1.1" id="Layer_1" xmlns="http://www.w3.org/2000/svg" xmlns:xlink="http://www.w3.org/1999/xlink" x="0px" y="0px"
	 viewBox="-222 379 167 35" style="enable-background:new -222 379 167 35;" xml:space="preserve">
<style type="text/css">
	.st0{enable-background:new    ;}
	.st1{fill:#4C52A4;}
</style>
<title>logo</title>
<desc>Created with Sketch.</desc>
<g id="Symbols">
	<g id="footer" transform="translate(-20.000000, -246.000000)">
		<g id="logo" transform="translate(-1.000000, 197.000000)">
			<g transform="translate(21.000000, 49.000000)">
				<g class="st0">
					<path class="st1" d="M-215.5,408.3c0-2.2,1.6-4,3.9-4c1.4,0,2.2,0.5,3,1.2l-0.6,0.6c-0.6-0.6-1.4-1.1-2.4-1.1
						c-1.7,0-3,1.4-3,3.2c0,1.8,1.3,3.2,3,3.2c1.1,0,1.7-0.4,2.5-1.1l0.6,0.6c-0.8,0.8-1.7,1.3-3.1,1.3
						C-213.8,412.3-215.5,410.5-215.5,408.3z"/>
					<path class="st1" d="M-207,404.4h5.6v0.8h-4.7v2.6h4.2v0.8h-4.2v2.7h4.8v0.8h-5.6V404.4z"/>
					<path class="st1" d="M-197.6,405.2h-2.6v-0.8h6.1v0.8h-2.6v6.9h-0.9V405.2z"/>
					<path class="st1" d="M-192.5,404.4h0.9v3h1.9c1.6,0,3,0.7,3,2.3c0,1.5-1.1,2.5-2.9,2.5h-2.9V404.4z M-189.6,411.3
						c1.2,0,2-0.5,2-1.6c0-1-0.8-1.5-2.1-1.5h-2v3.1H-189.6z"/>
					<path class="st1" d="M-182.1,408.3c0-2.2,1.6-4,3.9-4c1.4,0,2.2,0.5,3,1.2l-0.6,0.6c-0.6-0.6-1.4-1.1-2.4-1.1
						c-1.7,0-3,1.4-3,3.2c0,1.8,1.3,3.2,3,3.2c1.1,0,1.7-0.4,2.5-1.1l0.6,0.6c-0.8,0.8-1.7,1.3-3.1,1.3
						C-180.5,412.3-182.1,410.5-182.1,408.3z"/>
					<path class="st1" d="M-171.2,404.4h0.8l3.5,7.8h-0.9l-0.9-2h-4.2l-0.9,2h-0.9L-171.2,404.4z M-169,409.3l-1.7-3.9l-1.8,3.9
						H-169z"/>
					<path class="st1" d="M-166.5,412l0.2-0.7c0.1,0.1,0.4,0.1,0.7,0.1c0.6,0,1.6-0.4,1.6-5.6v-1.4h5v7.7h-0.9v-6.9h-3.3v0.8
						c0,5.4-1.1,6.2-2.3,6.2C-165.8,412.2-166.3,412.1-166.5,412z"/>
					<path class="st1" d="M-157.2,408.3c0-2.1,1.6-4,3.9-4s3.9,1.8,3.9,4c0,2.1-1.6,4-3.9,4S-157.2,410.4-157.2,408.3z
						 M-150.2,408.3c0-1.7-1.3-3.2-3-3.2s-3,1.4-3,3.2c0,1.7,1.3,3.2,3,3.2S-150.2,410-150.2,408.3z"/>
					<path class="st1" d="M-147.5,404.4h0.9v3.4h4.4v-3.4h0.9v7.7h-0.9v-3.5h-4.4v3.5h-0.9V404.4z"/>
					<path class="st1" d="M-139.5,408.3c0-2.1,1.6-4,3.9-4c2.3,0,3.9,1.8,3.9,4c0,2.1-1.6,4-3.9,4
						C-137.9,412.3-139.5,410.4-139.5,408.3z M-132.5,408.3c0-1.7-1.3-3.2-3-3.2c-1.8,0-3,1.4-3,3.2c0,1.7,1.3,3.2,3,3.2
						C-133.8,411.5-132.5,410-132.5,408.3z"/>
					<path class="st1" d="M-129.8,404.4h3.3c0.9,0,1.6,0.2,2,0.7c0.3,0.3,0.5,0.7,0.5,1.3c0,1-0.6,1.5-1.2,1.8
						c0.9,0.3,1.7,0.8,1.7,1.9c0,1.3-1.1,2.1-2.8,2.1h-3.4V404.4z M-126.7,407.9c1,0,1.8-0.5,1.8-1.4c0-0.8-0.6-1.3-1.7-1.3h-2.3
						v2.7H-126.7z M-126.4,411.3c1.2,0,1.9-0.5,1.9-1.4c0-0.8-0.7-1.3-2-1.3h-2.4v2.7H-126.4z"/>
					<path class="st1" d="M-118.6,404.4h6.1v7.7h-0.9v-6.9h-4.3v6.9h-0.9V404.4z"/>
					<path class="st1" d="M-111.4,412l0.2-0.7c0.1,0.1,0.4,0.1,0.7,0.1c0.6,0,1.6-0.4,1.6-5.6v-1.4h5v7.7h-0.9v-6.9h-3.3v0.8
						c0,5.4-1.1,6.2-2.3,6.2C-110.8,412.2-111.2,412.1-111.4,412z"/>
					<path class="st1" d="M-99.8,405.2h-2.6v-0.8h6.1v0.8h-2.6v6.9h-0.9V405.2z"/>
					<path class="st1" d="M-94.7,404.4h0.9v6.4l4.6-6.4h0.8v7.7h-0.9v-6.4l-4.6,6.4h-0.8V404.4z"/>
					<path class="st1" d="M-84.2,405.2h-2.6v-0.8h6.1v0.8h-2.6v6.9h-0.9V405.2z"/>
					<path class="st1" d="M-79.1,404.4h0.9v4.6l4.4-4.6h1.1l-3.3,3.4l3.4,4.3h-1.1l-3-3.7l-1.6,1.7v2.1h-0.9V404.4z"/>
					<path class="st1" d="M-71.2,404.4h0.9v6.4l4.6-6.4h0.8v7.7h-0.9v-6.4l-4.6,6.4h-0.8V404.4z"/>
				</g>
				<g id="Group-5" transform="translate(1.000000, 0.000000)">
					<polygon id="Fill-4" class="st1" points="-208,386.9 -211.7,380.9 -216.2,380.9 -216.2,396.4 -212,396.4 -212,387.5 
						-208.1,393.6 -208,393.6 -204,387.5 -204,396.4 -199.7,396.4 -199.7,380.9 -204.3,380.9 					"/>
					<polygon id="Fill-5" class="st1" points="-193.4,389.6 -193.4,380.9 -197.6,380.9 -197.6,396.4 -193.6,396.4 -187.6,387.7 
						-187.6,396.4 -183.4,396.4 -183.4,380.9 -187.4,380.9 					"/>
					<polygon id="Fill-6" class="st1" points="-166.9,380.9 -172,380.9 -177.3,387.2 -177.3,380.9 -181.6,380.9 -181.6,396.4 
						-177.3,396.4 -177.3,392.4 -175.8,390.6 -171.9,396.4 -166.7,396.4 -172.8,387.6 					"/>
					<path id="Fill-7" class="st1" d="M-159.8,389.8h-3l1.5-3.8L-159.8,389.8z M-159.2,380.9h-4.1l-4.9,11.6l2.8,4l1.3-3.3h5.6
						l1.3,3.3h4.6L-159.2,380.9z"/>
				</g>
			</g>
		</g>
	</g>
</g>
</svg>
