<svg xmlns="http://www.w3.org/2000/svg" xmlns:xlink="http://www.w3.org/1999/xlink" preserveAspectRatio="xMidYMid" width="46" height="50" viewBox="0 0 46 50">
  <defs>
    <style>
      .cls-1 {
        fill: #efca58;
        fill-rule: evenodd;
      }
    </style>
  </defs>
  <path d="M17.750,234.924 L-22.924,275.608 L-24.660,273.867 L14.262,234.924 L-22.954,234.924 L-22.954,148.998 L100.169,148.998 L211.010,38.112 L212.765,39.862 L103.668,148.998 L213.303,148.998 L213.303,230.476 L213.303,234.924 L17.750,234.924 ZM204.418,157.915 L-14.052,157.915 L-14.052,226.030 L204.418,226.030 L204.418,157.915 ZM26.136,49.992 L3.132,40.228 L0.000,15.233 L19.863,-0.006 L42.864,9.742 L46.002,34.751 L26.508,49.679 L26.136,49.992 ZM41.349,10.915 L20.108,1.909 L1.763,15.978 L4.654,39.064 L25.888,48.063 L44.244,33.992 L41.349,10.915 Z" class="cls-1"/>
</svg>
