<?xml version="1.0" encoding="utf-8"?>
<!-- Generator: Adobe Illustrator 19.0.0, SVG Export Plug-In . SVG Version: 6.00 Build 0)  -->
<svg version="1.1" id="Layer_1" xmlns="http://www.w3.org/2000/svg" xmlns:xlink="http://www.w3.org/1999/xlink" x="0px" y="0px"
	 viewBox="0 0 96 96" style="enable-background:new 0 0 96 96;" xml:space="preserve">
<style type="text/css">
	.st0{clip-path:url(#SVGID_2_);fill:#4C52A2;}
	.st1{clip-path:url(#SVGID_4_);fill:#FEFEFE;}
	.st2{clip-path:url(#SVGID_6_);fill:#FEFEFE;}
</style>
<g>
	<defs>
		
			<rect id="SVGID_1_" x="13.9" y="14.6" transform="matrix(0.7074 0.7068 -0.7068 0.7074 48.0229 -19.5159)" width="67.3" height="67.3"/>
	</defs>
	<clipPath id="SVGID_2_">
		<use xlink:href="#SVGID_1_"  style="overflow:visible;"/>
	</clipPath>
	<rect x="-5" y="-4.3" class="st0" width="105.2" height="105.2"/>
</g>
<g>
	<defs>
		<polygon id="SVGID_3_" points="29.5,50.6 48,32.1 36.2,32.1 40,28.3 54.5,28.3 54.5,42.6 50.7,46.4 50.7,34.8 32.2,53.3 		"/>
	</defs>
	<clipPath id="SVGID_4_">
		<use xlink:href="#SVGID_3_"  style="overflow:visible;"/>
	</clipPath>
	<rect x="24.5" y="23.3" class="st1" width="35" height="35"/>
</g>
<g>
	<defs>
		<polygon id="SVGID_5_" points="86.2,39.2 74.8,39.2 71,39.2 71,43 71.1,50.6 56,50.6 56,50.7 55.9,54.4 55.5,62.1 40,62.1 
			40,62.1 40.3,65.9 40.4,73.5 25.2,73.5 29,77.2 40.5,77.1 44,77.1 44,73.5 44.2,66 55.7,66.1 59,66.1 59,62.1 59.3,54.8 
			70.9,55.1 74.7,55.1 75,50.6 75,43 90.1,43 		"/>
	</defs>
	<clipPath id="SVGID_6_">
		<use xlink:href="#SVGID_5_"  style="overflow:visible;"/>
	</clipPath>
	<rect x="20.2" y="34.2" class="st2" width="74.9" height="48"/>
</g>
</svg>
