<?xml version="1.0" encoding="utf-8"?>
<!-- Generator: Adobe Illustrator 19.0.0, SVG Export Plug-In . SVG Version: 6.00 Build 0)  -->
<svg version="1.1" id="Layer_1" xmlns="http://www.w3.org/2000/svg" xmlns:xlink="http://www.w3.org/1999/xlink" x="0px" y="0px"
	 viewBox="0 0 94 93" style="enable-background:new 0 0 94 93;" xml:space="preserve">
<style type="text/css">
	.st0{clip-path:url(#SVGID_2_);fill:#4C52A2;}
	.st1{clip-path:url(#SVGID_4_);fill:#FEFEFE;}
	.st2{clip-path:url(#SVGID_6_);fill:#4C52A2;}
	.st3{clip-path:url(#SVGID_8_);fill:#4C52A2;}
	.st4{clip-path:url(#SVGID_10_);fill:#4C52A2;}
	.st5{clip-path:url(#SVGID_12_);fill:#4C52A2;}
	.st6{clip-path:url(#SVGID_14_);fill:#4C52A2;}
</style>
<g>
	<defs>
		
			<rect id="SVGID_1_" x="14.3" y="13.8" transform="matrix(0.7074 0.7068 -0.7068 0.7074 46.6599 -19.629)" width="65.4" height="65.4"/>
	</defs>
	<clipPath id="SVGID_2_">
		<use xlink:href="#SVGID_1_"  style="overflow:visible;"/>
	</clipPath>
	<rect x="-4.2" y="-4.7" class="st0" width="102.5" height="102.5"/>
</g>
<g>
	<defs>
		<polygon id="SVGID_3_" points="61.1,19.7 55.9,24.9 60.5,29.5 57.9,32.1 53.3,27.5 48.9,31.9 53.5,36.5 50.9,39.1 46.3,34.5 
			41.9,38.8 46.6,43.4 43.9,46.1 39.3,41.5 35,45.8 39.6,50.4 37,53 32.4,48.4 28,52.8 32.6,57.4 30,60 25.4,55.4 20.2,60.6 
			33,73.4 73.9,32.5 		"/>
	</defs>
	<clipPath id="SVGID_4_">
		<use xlink:href="#SVGID_3_"  style="overflow:visible;"/>
	</clipPath>
	<rect x="15.2" y="14.7" class="st1" width="63.7" height="63.7"/>
</g>
<g>
	<defs>
		<path id="SVGID_5_" d="M59.9,35.8l4-4c-0.4-0.2-0.6-0.2-0.8-0.4l0.6-0.6c0.2,0.1,0.4,0.2,0.6,0.2c0.3,0,0.6-0.1,0.9-0.2l0.7,0.7
			l-5.1,5.1L59.9,35.8z"/>
	</defs>
	<clipPath id="SVGID_6_">
		<use xlink:href="#SVGID_5_"  style="overflow:visible;"/>
	</clipPath>
	<rect x="54.9" y="25.8" class="st2" width="16" height="15.8"/>
</g>
<g>
	<defs>
		<path id="SVGID_7_" d="M51.9,42.4c0.6-0.7,1.2-1,1.7-1.1c0.5-0.1,0.8-0.2,1.2-0.2c0.3,0,0.6,0,0.9-0.1c0.6-0.1,0.8-0.2,1.1-0.5
			l0.5-0.5c0.2-0.2,0.3-0.3,0.3-0.4c0.1-0.2,0-0.3-0.1-0.4c-0.1-0.1-0.3-0.2-0.4-0.1c-0.1,0-0.2,0.1-0.5,0.4l-0.7,0.7l-0.8-0.8
			l0.6-0.6c0.3-0.3,0.6-0.6,0.9-0.7c0.6-0.2,1.2,0,1.6,0.4c0.5,0.5,0.6,1,0.5,1.4c-0.1,0.3-0.2,0.6-0.7,1.1l-0.3,0.3
			c-0.3,0.3-0.6,0.5-0.9,0.7c-0.4,0.2-0.8,0.2-1.2,0.3c-0.6,0.1-0.9,0.1-1.3,0.1c-0.4,0-0.6,0.1-0.9,0.3l1.5,1.5l-0.7,0.7L51.9,42.4
			z"/>
	</defs>
	<clipPath id="SVGID_8_">
		<use xlink:href="#SVGID_7_"  style="overflow:visible;"/>
	</clipPath>
	<rect x="46.9" y="33" class="st3" width="16.8" height="16.8"/>
</g>
<g>
	<defs>
		<path id="SVGID_9_" d="M47.4,48.9l-0.4,0.4c-0.3,0.3-0.4,0.4-0.4,0.5c-0.1,0.2,0,0.4,0.1,0.5c0.2,0.2,0.3,0.2,0.5,0.1
			c0.1,0,0.2-0.1,0.4-0.4l0.5-0.5c0.3-0.3,0.4-0.4,0.5-0.6c0-0.3-0.2-0.6-0.3-0.7L47.9,48l0.7-0.7l0.5,0.5c0.1,0.1,0.4,0.4,0.8,0
			l0.5-0.5c0.1-0.1,0.2-0.2,0.2-0.4c0-0.2,0-0.3-0.1-0.4c-0.1-0.1-0.3-0.2-0.4-0.1c-0.2,0-0.3,0.2-0.4,0.3l-0.4,0.4l-0.8-0.8
			l0.4-0.4c0.2-0.2,0.5-0.4,0.9-0.5c0.6-0.1,1.1,0.3,1.4,0.5c0.2,0.2,0.7,0.7,0.6,1.4c-0.1,0.4-0.3,0.6-0.5,0.8l-0.4,0.4
			c-0.4,0.3-0.6,0.6-1,0.6c-0.1,0-0.4,0-0.6-0.2c0.2,0.3,0.2,0.7,0,1c-0.1,0.3-0.3,0.5-0.5,0.7L48.4,51c-0.3,0.3-0.5,0.5-0.9,0.6
			c-0.6,0.1-1.1-0.1-1.5-0.6c-0.6-0.6-0.6-1.1-0.5-1.4c0.1-0.4,0.3-0.7,0.7-1.1l0.4-0.4L47.4,48.9z"/>
	</defs>
	<clipPath id="SVGID_10_">
		<use xlink:href="#SVGID_9_"  style="overflow:visible;"/>
	</clipPath>
	<rect x="40.4" y="40.2" class="st4" width="16.4" height="16.4"/>
</g>
<g>
	<defs>
		<path id="SVGID_11_" d="M39.3,57.9l0.9-0.9l-1.4-1.4l0.7-0.7l4.9-2.1l0.8,0.8l-3.5,3.5l0.4,0.4l-0.7,0.7l-0.4-0.4l-0.9,0.9
			L39.3,57.9z M42.7,54.5l-2.4,1.1l0.6,0.6L42.7,54.5z"/>
	</defs>
	<clipPath id="SVGID_12_">
		<use xlink:href="#SVGID_11_"  style="overflow:visible;"/>
	</clipPath>
	<rect x="33.8" y="47.7" class="st5" width="16.4" height="16"/>
</g>
<g>
	<defs>
		<path id="SVGID_13_" d="M33.6,63.1l-0.4,0.4c-0.2,0.2-0.2,0.3-0.3,0.4c0,0.2,0,0.3,0.1,0.4c0.1,0.1,0.2,0.2,0.4,0.1
			c0.2,0,0.3-0.2,0.4-0.3L35,63c0.1-0.1,0.2-0.3,0.3-0.4c0-0.1,0-0.2-0.1-0.4c-0.1-0.1-0.3-0.2-0.4-0.1c-0.1,0-0.2,0.1-0.4,0.2
			l-0.1,0.1l-0.7-0.7l3-3l2.1,2.1l-0.7,0.7l-1.4-1.4l-1.4,1.4c0.2,0,0.3,0,0.4,0c0.2,0.1,0.4,0.1,0.5,0.3c0.2,0.2,0.4,0.4,0.3,0.8
			c0,0.5-0.5,1-0.8,1.3l-0.9,0.9c-0.4,0.4-0.7,0.6-0.9,0.6c-0.7,0.2-1.2-0.2-1.5-0.5c-0.6-0.6-0.6-1.2-0.5-1.6
			c0.1-0.4,0.4-0.8,0.6-0.9l0.2-0.2L33.6,63.1z"/>
	</defs>
	<clipPath id="SVGID_14_">
		<use xlink:href="#SVGID_13_"  style="overflow:visible;"/>
	</clipPath>
	<rect x="26.9" y="53.7" class="st6" width="16.8" height="16.8"/>
</g>
</svg>
