<?xml version="1.0" encoding="utf-8"?>
<!-- Generator: Adobe Illustrator 19.0.0, SVG Export Plug-In . SVG Version: 6.00 Build 0)  -->
<svg version="1.1" id="Layer_1" xmlns="http://www.w3.org/2000/svg" xmlns:xlink="http://www.w3.org/1999/xlink" x="0px" y="0px"
	 viewBox="0 0 92 92" style="enable-background:new 0 0 92 92;" xml:space="preserve">
<style type="text/css">
	.st0{clip-path:url(#SVGID_2_);fill:#4C52A2;}
	.st1{clip-path:url(#SVGID_4_);fill:#FEFEFE;}
	.st2{clip-path:url(#SVGID_6_);fill:#FEFEFE;}
	.st3{clip-path:url(#SVGID_8_);fill:#FEFEFE;}
	.st4{clip-path:url(#SVGID_10_);fill:#FEFEFE;}
	.st5{clip-path:url(#SVGID_12_);fill:#FEFEFE;}
	.st6{clip-path:url(#SVGID_14_);fill:#FEFEFE;}
</style>
<g>
	<defs>
		
			<rect id="SVGID_1_" x="13.9" y="14" transform="matrix(0.7074 0.7069 -0.7069 0.7074 46.2409 -19.1171)" width="64.6" height="64.6"/>
	</defs>
	<clipPath id="SVGID_2_">
		<use xlink:href="#SVGID_1_"  style="overflow:visible;"/>
	</clipPath>
	<rect x="-4.5" y="-4.4" class="st0" width="101.3" height="101.3"/>
</g>
<g>
	<defs>
		<path id="SVGID_3_" d="M37,53.9c-2.6,0-4.7,2.1-4.7,4.7c0,2.6,2.1,4.7,4.7,4.7c2.6,0,4.7-2.1,4.7-4.7C41.6,56,39.5,53.9,37,53.9
			 M37,61.1c-1.4,0-2.5-1.1-2.5-2.5c0-1.4,1.1-2.5,2.5-2.5c1.4,0,2.5,1.1,2.5,2.5C39.4,60,38.3,61.1,37,61.1"/>
	</defs>
	<clipPath id="SVGID_4_">
		<use xlink:href="#SVGID_3_"  style="overflow:visible;"/>
	</clipPath>
	<rect x="27.3" y="48.9" class="st1" width="19.3" height="19.3"/>
</g>
<g>
	<defs>
		<path id="SVGID_5_" d="M61.9,53.9c-2.6,0-4.7,2.1-4.7,4.7c0,2.6,2.1,4.7,4.7,4.6c2.6,0,4.6-2.1,4.6-4.7
			C66.5,56,64.5,53.9,61.9,53.9 M61.9,61.1c-1.4,0-2.5-1.1-2.5-2.5c0-1.4,1.1-2.5,2.5-2.5c1.4,0,2.5,1.1,2.5,2.5
			C64.4,59.9,63.3,61.1,61.9,61.1"/>
	</defs>
	<clipPath id="SVGID_6_">
		<use xlink:href="#SVGID_5_"  style="overflow:visible;"/>
	</clipPath>
	<rect x="52.2" y="48.9" class="st2" width="19.3" height="19.3"/>
</g>
<g>
	<defs>
		<path id="SVGID_7_" d="M71.5,55.5l-0.7-7c0,0-0.7-0.9-1.5-1.5c-0.9-0.6-2.1-1-2.1-1l-6-7.7c-2.4,0-7.5,0.2-7.5,0.2l0,15.5h-1.2
			l0-19.1c0,0,0.1-0.4-0.2-0.7c-0.3-0.3-0.7-0.4-0.7-0.4l-22.9,0c0,0-0.5,0-0.8,0.3c-0.3,0.4-0.3,0.8-0.3,0.8l0,18.7l-1-0.2l0.2,4.6
			H32v0.4c0-3.1,2.3-5.6,5.3-5.6c3.1,0,5.4,2.5,5.4,5.6c0,0-0.1,0-0.1,0l13.7,0c0-3.1,2.5-5.8,5.5-5.8c3.1,0,5.6,2.3,5.6,5.3H71
			c0,0,0.4-0.2,0.6-1c0.2-0.7,0.2-1.7,0.2-1.7L71.5,55.5z M64,46.2l-9.3,0l0.2-6.3l5.2,0l3.9,5.5V46.2z"/>
	</defs>
	<clipPath id="SVGID_8_">
		<use xlink:href="#SVGID_7_"  style="overflow:visible;"/>
	</clipPath>
	<rect x="21.7" y="28.9" class="st3" width="55" height="34.7"/>
</g>
<g>
	<defs>
		<path id="SVGID_9_" d="M18.6,36.6c-0.6,0-1.1,0.6-1.1,1.3c0,0.6,0.5,1.3,1.1,1.3H26v-2.5L18.6,36.6z"/>
	</defs>
	<clipPath id="SVGID_10_">
		<use xlink:href="#SVGID_9_"  style="overflow:visible;"/>
	</clipPath>
	<rect x="12.5" y="31.6" class="st4" width="18.5" height="12.5"/>
</g>
<g>
	<defs>
		<path id="SVGID_11_" d="M20.8,42.3c-0.6,0-1.1,0.5-1.1,1.1c0,0.6,0.5,1.1,1.1,1.1l5.2,0v-2.3L20.8,42.3z"/>
	</defs>
	<clipPath id="SVGID_12_">
		<use xlink:href="#SVGID_11_"  style="overflow:visible;"/>
	</clipPath>
	<rect x="14.7" y="37.3" class="st5" width="16.3" height="12.3"/>
</g>
<g>
	<defs>
		<path id="SVGID_13_" d="M23.1,48.1c-0.6,0-1.1,0.4-1.1,1c0,0.6,0.5,1,1.1,1H26l0-2H23.1z"/>
	</defs>
	<clipPath id="SVGID_14_">
		<use xlink:href="#SVGID_13_"  style="overflow:visible;"/>
	</clipPath>
	<rect x="16.9" y="43.1" class="st6" width="14.1" height="12"/>
</g>
</svg>
