<?xml version="1.0" encoding="utf-8"?>
<!-- Generator: Adobe Illustrator 19.0.0, SVG Export Plug-In . SVG Version: 6.00 Build 0)  -->
<svg version="1.1" id="Layer_1" xmlns="http://www.w3.org/2000/svg" xmlns:xlink="http://www.w3.org/1999/xlink" x="0px" y="0px"
	 viewBox="0 0 95 95" style="enable-background:new 0 0 95 95;" xml:space="preserve">
<style type="text/css">
	.st0{clip-path:url(#SVGID_2_);fill:#4C52A2;}
	.st1{clip-path:url(#SVGID_4_);fill:#FEFEFE;}
</style>
<g>
	<defs>
		
			<rect id="SVGID_1_" x="14.2" y="14" transform="matrix(-0.7068 0.7074 -0.7074 -0.7068 114.8333 47.2574)" width="66.9" height="66.9"/>
	</defs>
	<clipPath id="SVGID_2_">
		<use xlink:href="#SVGID_1_"  style="overflow:visible;"/>
	</clipPath>
	<rect x="-4.7" y="-4.9" class="st0" width="104.6" height="104.6"/>
</g>
<g>
	<defs>
		<path id="SVGID_3_" d="M47.6,5.4L47.6,5.4l-2.7,2.7L34.3,18.7l-2.7,2.7L8.3,44.7l-2.7,2.7L8.3,50l16.2,15.7l0.5,0v0l15,0L39.8,62
			l-14.1,0l-4.2-4.1c5.8-5.8,5.8-15.3,0.1-21.2L34.3,24l36.6,36.6L65.4,66l-7.8-7.8c-1.2-1.2-3-1.5-4-0.5l-6.1,6.1
			c-1,1-0.7,2.7,0.5,4l7.8,7.8l-8.3,8.3L37.7,74L35,76.7l9.9,9.9l2.7,2.7l2.7-2.7L86.8,50l2.6-2.6l0,0L47.6,5.4z M19,55L19,55
			l-6-5.8l2.6-0.2l-0.1-4h-2.7l6.1-5.8C23.1,43.7,24,50.8,19,55z M73.6,57.9L37,21.4l4.1-4.1l2.7,2.7l2.7-2.7l-2.7-2.7l3.9-3.9
			l36.6,36.6L73.6,57.9z"/>
	</defs>
	<clipPath id="SVGID_4_">
		<use xlink:href="#SVGID_3_"  style="overflow:visible;"/>
	</clipPath>
	<rect x="0.6" y="0.4" class="st1" width="93.9" height="93.9"/>
</g>
</svg>
