<?xml version="1.0" encoding="utf-8"?>
<!-- Generator: Adobe Illustrator 19.0.0, SVG Export Plug-In . SVG Version: 6.00 Build 0)  -->
<svg version="1.1" id="Layer_1" xmlns="http://www.w3.org/2000/svg" xmlns:xlink="http://www.w3.org/1999/xlink" x="0px" y="0px"
	 viewBox="-271 363 68 68" style="enable-background:new -271 363 68 68;" xml:space="preserve">
<style type="text/css">
	.st0{fill:#4C52A4;}
	.st1{fill:#FFFFFF;}
</style>
<title>icon-conserge</title>
<desc>Created with Sketch.</desc>
<g id="Page-1">
	<g id="_x36_---services" transform="translate(-735.000000, -423.000000)">
		<g id="service" transform="translate(735.000000, 397.000000)">
			<g id="icon-conserge" transform="translate(0.000000, 26.000000)">
				
					<rect id="Rectangle" x="-261" y="373" transform="matrix(-0.7071 -0.7071 0.7071 -0.7071 -685.3057 510.1371)" class="st0" width="48" height="48"/>
				<path id="Combined-Shape" class="st1" d="M-224,401h2c0-0.2,0-0.4,0-0.5c0-7.3-5.7-13.4-13-14.3V384h-3v2
					c-7.8,0.5-14,6.8-14,14.4c0,0.2,0,0.4,0,0.5h2H-224z M-248.7,398c1.2-5.1,6-9,11.7-9s10.5,3.9,11.7,9H-248.7z M-240,381h7v3h-7
					V381z M-252,404h30v3h-30V404z"/>
			</g>
		</g>
	</g>
</g>
</svg>
