<?xml version="1.0" encoding="UTF-8" standalone="no"?>
<svg width="16px" height="15px" viewBox="0 0 16 15" version="1.1" xmlns="http://www.w3.org/2000/svg" xmlns:xlink="http://www.w3.org/1999/xlink">
    <!-- Generator: Sketch 3.7.2 (28276) - http://www.bohemiancoding.com/sketch -->
    <title>  3</title>
    <desc>Created with Sketch.</desc>
    <defs>
        <path d="M8.39285714,14.1964297 L13.9553571,8.83928682 C14.0357143,8.75892968 16,6.96428682 16,4.82142968 C16,2.20535825 14.4017857,0.64285825 11.7321429,0.64285825 C10.1696429,0.64285825 8.70535714,1.87500111 8,2.57142968 C7.29464286,1.87500111 5.83035714,0.64285825 4.26785714,0.64285825 C1.59821429,0.64285825 0,2.20535825 0,4.82142968 C0,6.96428682 1.96428571,8.75892968 2.03571429,8.82142968 L7.60714286,14.1964297 C7.71428571,14.3035725 7.85714286,14.357144 8,14.357144 C8.14285714,14.357144 8.28571429,14.3035725 8.39285714,14.1964297 Z" id="path-1"></path>
        <mask id="mask-2" maskContentUnits="userSpaceOnUse" maskUnits="objectBoundingBox" x="0" y="0" width="16" height="13.7142857" fill="white">
            <use xlink:href="#path-1"></use>
        </mask>
    </defs>
    <g id="Symbols" stroke="none" stroke-width="1" fill="none" fill-rule="evenodd">
        <g id="mainNav" transform="translate(-1320.000000, -55.000000)" stroke-width="4" stroke="#EE293B">
            <g id="header" transform="translate(15.000000, 0.000000)">
                <g id="Group" transform="translate(1305.000000, 55.000000)">
                    <g id="--3">
                        <use id="-" mask="url(#mask-2)" xlink:href="#path-1"></use>
                    </g>
                </g>
            </g>
        </g>
    </g>
</svg>