<?xml version="1.0" encoding="UTF-8" standalone="no"?>
<svg width="78px" height="44px" viewBox="0 0 78 44" version="1.1" xmlns="http://www.w3.org/2000/svg" xmlns:xlink="http://www.w3.org/1999/xlink">
    <!-- Generator: Sketch 3.7.2 (28276) - http://www.bohemiancoding.com/sketch -->
    <title>Group 4</title>
    <desc>Created with Sketch.</desc>
    <defs></defs>
    <g id="Symbols" stroke="none" stroke-width="1" fill="none" fill-rule="evenodd">
        <g id="mainNav" transform="translate(-37.000000, -38.000000)" fill="#FEFEFE">
            <g id="header" transform="translate(15.000000, 0.000000)">
                <g id="Page-1">
                    <g id="Group-4" transform="translate(22.000000, 38.000000)">
                        <polygon id="Fill-2" points="17 7 17 1 58 1 58 7 59 7 59 0 16 0 16 7"></polygon>
                        <polygon id="Fill-3" points="58 37 58 43 17 43 17 37 16 37 16 44 59 44 59 44 59 37"></polygon>
                        <polygon id="Fill-4" points="10.0596825 19.8469841 5.55026455 12.5255026 0.0118518519 12.5255026 0.0118518519 31.4397884 5.1447619 31.4397884 5.1447619 20.6296296 9.9557672 27.9792593 10.0596825 27.9792593 14.8990476 20.5756614 14.8990476 31.4397884 20.1142857 31.4397884 20.1142857 12.5255026 14.5752381 12.5255026"></polygon>
                        <polygon id="Fill-5" points="27.4061164 23.1715344 27.4061164 12.5256085 22.2179683 12.5256085 22.2179683 31.4396825 27.1062222 31.4396825 34.4329947 20.7943915 34.4329947 31.4396825 39.6183915 31.4396825 39.6183915 12.5256085 34.7297143 12.5256085"></polygon>
                        <polygon id="Fill-6" points="59.726709 12.525545 53.5144339 12.525545 47.0018413 20.1968677 47.0018413 12.525545 41.7612063 12.525545 41.7612063 31.4398307 47.0018413 31.4398307 47.0018413 26.5498836 48.9203598 24.4150688 53.6754921 31.4398307 59.9713651 31.4398307 52.5684021 20.6573968"></polygon>
                        <path d="M68.9311958,23.190328 L65.3132063,23.190328 L67.1356402,18.6032381 L68.9311958,23.190328 Z M69.7011429,12.3905397 L64.646963,12.3905397 L58.6797672,26.5120212 L62.1064339,31.4398519 L63.684,27.4620741 L70.5320423,27.4620741 L72.1337354,31.4398519 L77.7515132,31.4398519 L69.7011429,12.3905397 Z" id="Fill-7"></path>
                    </g>
                </g>
            </g>
        </g>
    </g>
</svg>