<?xml version="1.0" encoding="UTF-8" standalone="no"?>
<svg width="120px" height="120px" viewBox="0 0 120 120" version="1.1" xmlns="http://www.w3.org/2000/svg" xmlns:xlink="http://www.w3.org/1999/xlink">
    <!-- Generator: Sketch 3.7.2 (28276) - http://www.bohemiancoding.com/sketch -->
    <title>logo</title>
    <desc>Created with Sketch.</desc>
    <defs></defs>
    <g id="Page-1" stroke="none" stroke-width="1" fill="none" fill-rule="evenodd">
        <g id="0---LOGIN" transform="translate(-442.000000, -285.000000)">
            <g id="popUp---loginMail" transform="translate(345.000000, 285.000000)">
                <g id="logo" transform="translate(97.000000, 0.000000)">
                    <polygon id="Fill-1" fill="#EE293B" points="0 120 120 120 120 0 0 0"></polygon>
                    <polygon id="Fill-2" fill="#FEFEFE" points="39 45 39 39 80 39 80 45 81 45 81 38 38 38 38 45"></polygon>
                    <polygon id="Fill-3" fill="#FEFEFE" points="80 75 80 81 39 81 39 75 38 75 38 82 81 82 81 82 81 75"></polygon>
                    <polygon id="Fill-4" fill="#FEFEFE" points="32.0596825 57.8469841 27.5502646 50.5255026 22.0118519 50.5255026 22.0118519 69.4397884 27.1447619 69.4397884 27.1447619 58.6296296 31.9557672 65.9792593 32.0596825 65.9792593 36.8990476 58.5756614 36.8990476 69.4397884 42.1142857 69.4397884 42.1142857 50.5255026 36.5752381 50.5255026"></polygon>
                    <polygon id="Fill-5" fill="#FEFEFE" points="49.4061164 61.1715344 49.4061164 50.5256085 44.2179683 50.5256085 44.2179683 69.4396825 49.1062222 69.4396825 56.4329947 58.7943915 56.4329947 69.4396825 61.6183915 69.4396825 61.6183915 50.5256085 56.7297143 50.5256085"></polygon>
                    <polygon id="Fill-6" fill="#FEFEFE" points="81.726709 50.525545 75.5144339 50.525545 69.0018413 58.1968677 69.0018413 50.525545 63.7612063 50.525545 63.7612063 69.4398307 69.0018413 69.4398307 69.0018413 64.5498836 70.9203598 62.4150688 75.6754921 69.4398307 81.9713651 69.4398307 74.5684021 58.6573968"></polygon>
                    <path d="M90.9311958,61.190328 L87.3132063,61.190328 L89.1356402,56.6032381 L90.9311958,61.190328 Z M91.7011429,50.3905397 L86.646963,50.3905397 L80.6797672,64.5120212 L84.1064339,69.4398519 L85.684,65.4620741 L92.5320423,65.4620741 L94.1337354,69.4398519 L99.7515132,69.4398519 L91.7011429,50.3905397 Z" id="Fill-7" fill="#FEFEFE"></path>
                </g>
            </g>
        </g>
    </g>
</svg>