<?xml version="1.0" encoding="UTF-8" standalone="no"?>
<svg width="27px" height="37px" viewBox="0 0 27 37" version="1.1" xmlns="http://www.w3.org/2000/svg" xmlns:xlink="http://www.w3.org/1999/xlink">
    <!-- Generator: Sketch 40.1 (33804) - http://www.bohemiancoding.com/sketch -->
    <title>Combined Shape</title>
    <desc>Created with Sketch.</desc>
    <defs></defs>
    <g id="Page-1" stroke="none" stroke-width="1" fill="none" fill-rule="evenodd">
        <g id="1---main" transform="translate(-965.000000, -3399.000000)" fill="#EC253C">
            <g id="IV" transform="translate(0.000000, 2208.000000)">
                <g id="2" transform="translate(0.000000, 900.000000)">
                    <g id="text" transform="translate(303.000000, 196.000000)">
                        <g id="marker" transform="translate(662.000000, 95.000000)">
                            <g id="Group">
                                <path d="M13.5,0 C20.956,0 27,6.044 27,13.5 C27,20.956 13.5,37 13.5,37 C13.5,37 0,20.956 0,13.5 C0,6.044 6.044,0 13.5,0 Z M14,19 C16.7614237,19 19,16.7614237 19,14 C19,11.2385763 16.7614237,9 14,9 C11.2385763,9 9,11.2385763 9,14 C9,16.7614237 11.2385763,19 14,19 Z" id="Combined-Shape"></path>
                            </g>
                        </g>
                    </g>
                </g>
            </g>
        </g>
    </g>
</svg>