<?xml version="1.0" encoding="UTF-8" standalone="no"?>
<svg width="39px" height="48px" viewBox="0 0 39 48" version="1.1" xmlns="http://www.w3.org/2000/svg" xmlns:xlink="http://www.w3.org/1999/xlink">
    <!-- Generator: Sketch 39.1 (31720) - http://www.bohemiancoding.com/sketch -->
    <title>Combined Shape Copy</title>
    <desc>Created with Sketch.</desc>
    <defs></defs>
    <g id="Symbols" stroke="none" stroke-width="1" fill="none" fill-rule="evenodd">
        <g id="$icon-download" transform="translate(-4.000000, 0.000000)" fill="#85C7C2">
            <path d="M29,0 L31,0 L31,2 L31,12.0044225 C31,12.5542648 31.455761,13 32.0024733,13 L43,13 L43,15 L43,43.9950767 C43,46.2072016 41.2039597,48 38.9925388,48 L8.00746124,48 C5.79500134,48 4,46.2065142 4,43.9950767 L4,4.00492334 C4,1.79279839 5.79604029,0 8.00746124,0 L29,0 L29,0 L29,0 L29,0 Z M8.00746124,2 C6.90034552,2 6,2.89763476 6,4.00492334 L6,43.9950767 C6,45.1011449 6.89877101,46 8.00746124,46 L38.9925388,46 C40.0996545,46 41,45.1023652 41,43.9950767 L41,15 L31.0085302,15 C29.8992496,15 29,14.1064574 29,12.9972399 L29,2 L8.00746124,2 L8.00746124,2 L8.00746124,2 L8.00746124,2 Z M43,13 L40.5,13 L31,2.5 L31,0 L43,13 Z M24.778367,35.0710678 L30.847686,29.0017489 C31.23427,28.6151649 31.8731241,28.6094757 32.2636484,29 C32.6568954,29.393247 32.6546468,30.0232151 32.2647074,30.4131545 L24.4844148,38.1934472 C24.0947898,38.5830721 23.4622587,38.5833866 23.0723193,38.1934472 L15.2920266,30.4131545 C14.9024017,30.0235296 14.9025614,29.3905243 15.2930857,29 C15.6863326,28.606753 16.3175579,28.6102587 16.7090481,29.0017489 L22.778367,35.0710678 L22.778367,15.0024617 C22.778367,14.4394583 23.2260823,14 23.778367,14 C24.3345022,14 24.778367,14.4488174 24.778367,15.0024617 L24.778367,35.0710678 L24.778367,35.0710678 Z" id="Combined-Shape-Copy"></path>
        </g>
    </g>
</svg>