<?xml version="1.0" encoding="utf-8"?>
<!-- Generator: Adobe Illustrator 19.0.0, SVG Export Plug-In . SVG Version: 6.00 Build 0)  -->
<svg version="1.1" id="Layer_1" xmlns="http://www.w3.org/2000/svg" xmlns:xlink="http://www.w3.org/1999/xlink" x="0px" y="0px"
	 viewBox="-299 388 13 18" style="enable-background:new -299 388 13 18;" xml:space="preserve">
<style type="text/css">
	.st0{enable-background:new    ;}
	.st1{fill:#F36976;}
</style>
<title></title>
<desc>Created with Sketch.</desc>
<g id="Page-1">
	<g id="_x39_---textPage" transform="translate(-1272.000000, -3881.000000)">
		<g id="CONTENT" transform="translate(127.000000, 979.000000)">
			<g id="info" transform="translate(17.000000, 2885.000000)">
				<g id="Group-10" transform="translate(928.000000, 3.000000)">
					<g id="socialButtons" transform="translate(98.000000, 0.000000)">
						<g id="btn-p" transform="translate(86.000000, 0.000000)">
							<g class="st0">
								<path class="st1" d="M-276.2,402.6c3.2,0,6,2.2,6,5.5c0,3.1-1.6,6.6-5.2,6.6c-0.8,0-1.9-0.4-2.3-1.2c-0.8,3-0.7,3.5-2.4,5.8
									l-0.1,0l-0.1-0.1c-0.1-0.6-0.2-1.3-0.2-1.9c0-2,0.9-5,1.4-7c-0.3-0.5-0.3-1.1-0.3-1.7c0-1,0.7-2.3,1.8-2.3
									c0.8,0,1.3,0.6,1.3,1.4c0,1.3-0.9,2.5-0.9,3.8c0,0.9,0.7,1.5,1.5,1.5c2.3,0,3-3.3,3-5.1c0-2.4-1.7-3.7-4-3.7
									c-2.7,0-4.7,1.9-4.7,4.6c0,1.3,0.8,2,0.8,2.3c0,0.3-0.2,1.2-0.5,1.2c-0.1,0-0.1,0-0.2,0c-1.4-0.4-2-2.3-2-3.7
									C-283,404.9-279.6,402.6-276.2,402.6z"/>
							</g>
						</g>
					</g>
				</g>
			</g>
		</g>
	</g>
</g>
</svg>
