<?xml version="1.0" encoding="utf-8"?>
<!-- Generator: Adobe Illustrator 19.0.0, SVG Export Plug-In . SVG Version: 6.00 Build 0)  -->
<svg version="1.1" id="Layer_1" xmlns="http://www.w3.org/2000/svg" xmlns:xlink="http://www.w3.org/1999/xlink" x="0px" y="0px"
	 viewBox="-284 370.8 43 42.5" style="enable-background:new -284 370.8 43 42.5;" xml:space="preserve">
<style type="text/css">
	.st0{fill:#A9D7D4;}
	.st1{enable-background:new    ;}
	.st2{fill:#FFFFFF;}
</style>
<title>btn-p</title>
<desc>Created with Sketch.</desc>
<g id="Page-1_1_">
	<g id="_x32_.1---collection" transform="translate(-47.000000, -846.000000)">
		<g id="FIRST-SCREEN" transform="translate(47.000000, 120.000000)">
			<g id="socialButtons" transform="translate(0.000000, 640.000000)">
				<g id="btn-p" transform="translate(0.000000, 86.000000)">
					<polygon id="Page-1" class="st0" points="-262.6,370.8 -283.9,392.1 -262.6,413.4 -241.4,392.1 					"/>
					<g class="st1">
						<path class="st2" d="M-262.3,385.1c2.6,0,5,1.8,5,4.6c0,2.6-1.3,5.5-4.3,5.5c-0.7,0-1.6-0.4-1.9-1c-0.6,2.5-0.6,2.9-2,4.8
							l-0.1,0l-0.1-0.1c-0.1-0.5-0.1-1-0.1-1.6c0-1.7,0.8-4.2,1.2-5.8c-0.2-0.4-0.3-0.9-0.3-1.4c0-0.8,0.6-1.9,1.5-1.9
							c0.7,0,1.1,0.5,1.1,1.2c0,1.1-0.7,2.1-0.7,3.2c0,0.7,0.6,1.2,1.3,1.2c1.9,0,2.5-2.8,2.5-4.3c0-2-1.4-3.1-3.3-3.1
							c-2.2,0-3.9,1.6-3.9,3.8c0,1.1,0.7,1.6,0.7,1.9c0,0.2-0.2,1-0.4,1c0,0-0.1,0-0.1,0c-1.2-0.4-1.6-2-1.6-3.1
							C-268,387-265.2,385.1-262.3,385.1z"/>
					</g>
				</g>
			</g>
		</g>
	</g>
</g>
</svg>
