<?xml version="1.0" encoding="UTF-8" standalone="no"?>
<svg width="16px" height="16px" viewBox="0 0 16 16" version="1.1" xmlns="http://www.w3.org/2000/svg" xmlns:xlink="http://www.w3.org/1999/xlink">
    <!-- Generator: Sketch 3.7.2 (28276) - http://www.bohemiancoding.com/sketch -->
    <title>search icon</title>
    <desc>Created with Sketch.</desc>
    <defs></defs>
    <g id="Symbols" stroke="none" stroke-width="1" fill="none" fill-rule="evenodd">
        <g id="mainNav" transform="translate(-1199.000000, -54.000000)" fill="#59595C">
            <g id="header" transform="translate(15.000000, 0.000000)">
                <g id="Group-3" transform="translate(1184.000000, 54.000000)">
                    <g id="Group-2">
                        <g id="Search-box/round">
                            <path d="M11.0769231,6.76923077 C11.0769231,9.14423077 9.14423077,11.0769231 6.76923077,11.0769231 C4.39423077,11.0769231 2.46153846,9.14423077 2.46153846,6.76923077 C2.46153846,4.39423077 4.39423077,2.46153846 6.76923077,2.46153846 C9.14423077,2.46153846 11.0769231,4.39423077 11.0769231,6.76923077 L11.0769231,6.76923077 Z M16,14.7692308 C16,14.4423077 15.8653846,14.125 15.6442308,13.9038462 L12.3461538,10.6057692 C13.125,9.48076923 13.5384615,8.13461538 13.5384615,6.76923077 C13.5384615,3.02884615 10.5096154,0 6.76923077,0 C3.02884615,0 0,3.02884615 0,6.76923077 C0,10.5096154 3.02884615,13.5384615 6.76923077,13.5384615 C8.13461538,13.5384615 9.48076923,13.125 10.6057692,12.3461538 L13.9038462,15.6346154 C14.125,15.8653846 14.4423077,16 14.7692308,16 C15.4423077,16 16,15.4423077 16,14.7692308 L16,14.7692308 Z" id="search-icon"></path>
                        </g>
                    </g>
                </g>
            </g>
        </g>
    </g>
</svg>