<svg xmlns="http://www.w3.org/2000/svg" xmlns:xlink="http://www.w3.org/1999/xlink" preserveAspectRatio="xMidYMid" width="274" height="183" viewBox="0 0 274 183">
  <defs>
    <style>
      .cls-1 {
        fill: #fff;
        fill-rule: evenodd;
      }
    </style>
  </defs>
  <path d="M255.460,182.316 L252.355,162.357 L233.415,162.357 L230.310,182.316 L211.991,182.316 L232.018,74.011 L253.752,74.011 L273.779,182.316 L255.460,182.316 ZM243.040,104.027 L242.730,104.027 L235.433,147.194 L250.337,147.194 L243.040,104.027 ZM192.119,182.316 L176.594,131.103 L170.229,131.103 L170.229,182.316 L152.531,182.316 L152.531,74.011 L170.229,74.011 L170.229,115.941 L176.128,115.941 C179.389,115.941 182.183,114.703 183.735,105.264 L186.840,86.544 C187.772,80.664 190.877,77.724 193.050,76.487 C195.845,74.785 200.813,74.011 204.384,74.011 L209.351,74.011 L209.351,89.483 L206.557,89.483 C202.675,89.483 201.900,93.816 201.589,95.208 L198.329,114.393 C197.552,119.190 196.155,123.057 192.585,126.926 L209.817,182.316 L192.119,182.316 ZM124.743,128.473 L125.364,120.582 L106.424,162.666 L106.424,182.316 L88.726,182.316 L88.726,74.011 L106.424,74.011 L106.424,123.832 L105.803,132.650 L124.743,90.566 L124.743,74.011 L142.441,74.011 L142.441,182.316 L124.743,182.316 L124.743,128.473 ZM60.160,115.167 L61.091,100.778 L60.315,100.778 L47.585,182.316 L30.819,182.316 L18.088,100.778 L17.312,100.778 L18.243,115.167 L18.243,182.316 L0.545,182.316 L0.545,74.011 L28.490,74.011 L38.891,143.945 L39.512,143.945 L49.913,74.011 L77.858,74.011 L77.858,182.316 L60.160,182.316 L60.160,115.167 Z" class="cls-1"/>
  <path d="M74.531,49.771 L73.535,40.619 L67.270,40.619 L66.273,49.771 L60.578,49.771 L66.843,0.108 L73.962,0.108 L80.226,49.771 L74.531,49.771 ZM70.473,10.821 L70.331,10.750 L67.768,35.368 L73.036,35.368 L70.473,10.821 ZM52.178,27.707 C50.896,27.777 48.690,27.565 47.551,27.423 L47.551,49.771 L41.998,49.771 L41.998,0.108 L50.683,0.108 C52.320,0.108 55.310,0.392 57.303,3.088 C58.870,5.216 59.083,8.126 59.083,9.970 L59.083,18.412 C59.083,20.896 58.514,23.520 57.303,25.152 C55.951,27.068 54.100,27.635 52.178,27.707 ZM53.530,9.473 C53.530,9.118 53.530,7.274 52.676,6.281 C51.964,5.429 50.825,5.358 50.042,5.358 L47.551,5.358 L47.551,22.173 L50.114,22.173 C51.039,22.173 52.462,22.315 53.174,20.754 C53.317,20.470 53.530,19.831 53.530,17.348 L53.530,9.473 ZM23.418,0.108 L38.083,0.108 L38.083,5.358 L28.971,5.358 L28.971,20.896 L34.809,20.896 L34.809,26.146 L28.971,26.146 L28.971,44.521 L38.083,44.521 L38.083,49.771 L23.418,49.771 L23.418,0.108 ZM12.527,46.082 L12.527,31.324 C12.527,30.047 12.598,28.415 11.602,27.352 C11.032,26.784 9.964,26.358 8.968,26.358 L6.975,26.358 L6.975,49.771 L1.422,49.771 L1.422,0.108 L6.975,0.108 L6.975,21.108 L8.825,21.108 C10.534,21.108 11.531,19.619 11.531,17.987 L11.531,5.855 C11.531,4.081 11.673,1.882 13.666,0.747 C14.165,0.463 15.090,0.108 17.297,0.108 L19.077,0.108 L19.077,5.784 L18.009,5.855 C17.297,5.926 16.798,6.635 16.798,7.841 L16.798,18.625 C16.798,21.463 14.947,22.740 14.093,23.237 L14.093,23.520 C15.588,23.946 16.514,24.869 17.083,25.720 C18.151,27.493 18.080,29.551 18.080,31.254 L18.080,43.811 C18.080,44.733 18.222,46.437 18.436,47.288 C18.649,47.927 19.148,48.991 19.503,49.559 L19.503,49.771 L13.453,49.771 C12.812,48.565 12.527,47.288 12.527,46.082 Z" class="cls-1"/>
</svg>
