<svg xmlns="http://www.w3.org/2000/svg" xmlns:xlink="http://www.w3.org/1999/xlink" preserveAspectRatio="xMidYMid" width="95" height="109" viewBox="0 0 95 109">
  <defs>
    <style>
      .cls-1 {
        fill: #89c9c8;
      }

      .cls-1, .cls-2 {
        fill-rule: evenodd;
      }

      .cls-2 {
        fill: #4c52a3;
      }
    </style>
  </defs>
  <path d="M39.853,36.975 L39.853,19.089 L38.122,19.089 C37.124,19.089 36.547,19.717 36.337,20.030 C35.864,20.711 35.864,21.547 35.864,22.384 L35.864,32.634 C35.864,34.203 35.760,35.511 35.130,36.975 L32.979,36.975 L32.979,36.819 C33.818,34.936 33.871,33.577 33.871,31.798 L33.871,23.952 C33.871,22.018 33.818,20.554 34.815,19.299 C35.340,18.670 35.918,18.356 36.652,18.253 L36.652,18.148 C35.707,17.781 34.921,17.154 34.500,16.475 C33.713,15.271 33.662,13.702 33.662,12.500 L33.662,6.485 C33.662,4.184 34.028,3.085 34.238,2.668 C35.130,0.627 36.757,0.367 38.017,0.367 L41.846,0.367 L41.846,36.975 L39.853,36.975 ZM39.853,2.144 L38.173,2.144 C37.597,2.144 36.705,2.248 36.127,3.190 C35.707,3.871 35.656,4.760 35.656,5.492 L35.656,13.649 C35.656,14.382 35.656,15.428 36.337,16.318 C37.020,17.206 37.754,17.310 38.540,17.310 L39.853,17.310 L39.853,2.144 ZM25.422,2.354 L23.010,2.354 L23.010,17.625 C23.010,26.830 22.642,31.694 21.173,34.518 C20.017,36.766 18.970,36.975 18.078,36.975 L17.446,36.975 L17.446,34.989 C18.444,34.830 18.916,34.361 19.441,33.263 C20.753,30.490 21.015,25.208 21.015,21.862 L21.015,0.367 L27.417,0.367 L27.417,36.975 L25.422,36.975 L25.422,2.354 ZM12.411,36.975 L3.279,36.975 L3.279,42.205 L1.601,42.205 L1.601,35.199 L3.017,35.199 C4.120,32.059 5.852,25.888 5.852,13.649 L5.852,0.367 L12.305,0.367 L12.305,35.199 L14.090,35.199 L14.090,42.205 L12.411,42.205 L12.411,36.975 ZM10.312,2.144 L7.426,2.144 L7.426,14.853 C7.426,25.208 6.062,31.065 4.749,35.199 L10.312,35.199 L10.312,2.144 Z" class="cls-1"/>
  <path d="M50.620,84.577 L48.626,84.577 L45.844,69.305 L45.738,69.305 L43.011,84.577 L41.016,84.577 L44.584,65.018 L41.174,47.968 L43.167,47.968 L45.738,61.514 L45.844,61.514 L48.468,47.968 L50.462,47.968 L47.050,65.018 L50.620,84.577 ZM29.577,47.968 L37.447,47.968 L37.447,49.745 L31.571,49.745 L31.571,64.442 L36.923,64.442 L36.923,66.220 L31.571,66.220 L31.571,82.800 L37.711,82.800 L37.711,84.577 L29.577,84.577 L29.577,47.968 ZM19.713,85.101 C18.400,85.101 17.036,84.733 16.196,82.955 C15.725,81.963 15.620,80.655 15.620,78.092 L15.620,54.453 C15.620,51.891 15.725,50.583 16.196,49.589 C17.036,47.812 18.400,47.445 19.713,47.445 C21.025,47.445 22.389,47.812 23.229,49.589 C23.701,50.583 23.805,51.891 23.805,54.453 L23.805,60.729 L21.812,60.729 L21.812,54.087 C21.812,51.577 21.707,51.001 21.549,50.583 C21.129,49.537 20.342,49.432 19.713,49.432 C19.031,49.432 18.349,49.537 17.929,50.583 C17.770,51.001 17.613,51.630 17.613,54.087 L17.613,78.458 C17.613,80.918 17.770,81.543 17.929,81.963 C18.349,83.008 19.031,83.113 19.713,83.113 C20.342,83.113 21.129,83.008 21.549,81.963 C21.707,81.543 21.812,80.968 21.812,78.458 L21.812,70.457 L23.805,70.457 L23.805,78.092 C23.805,80.655 23.701,81.963 23.229,82.955 C22.389,84.733 21.025,85.101 19.713,85.101 ZM5.492,84.577 L1.557,84.577 L1.557,47.968 L5.283,47.968 C6.383,47.968 7.802,48.125 8.799,49.851 C9.428,50.896 9.638,52.362 9.638,54.872 L9.638,60.048 C9.638,61.722 9.587,62.716 9.271,63.501 C9.062,64.076 8.536,64.912 7.487,65.436 C8.273,65.749 9.113,66.378 9.480,67.842 C9.587,68.208 9.743,69.045 9.743,72.078 L9.743,77.203 C9.743,79.608 9.587,80.918 9.271,81.910 C8.589,83.949 7.329,84.577 5.492,84.577 ZM7.644,61.096 L7.644,53.669 C7.644,52.937 7.592,51.734 7.277,51.001 C6.961,50.113 6.383,49.745 5.597,49.745 L3.550,49.745 L3.550,64.703 L5.335,64.703 C6.383,64.703 6.961,64.024 7.171,63.658 C7.487,63.135 7.644,62.349 7.644,61.096 ZM7.749,71.294 C7.749,68.940 7.644,68.259 7.433,67.789 C7.225,67.267 6.647,66.481 5.440,66.481 L3.550,66.481 L3.550,82.800 L5.545,82.800 C6.647,82.800 7.119,82.119 7.382,81.388 C7.644,80.655 7.749,79.661 7.749,78.039 L7.749,71.294 Z" class="cls-1"/>
  <path d="M94.864,109.001 L0.902,109.001 L0.902,99.383 L94.864,99.383 L94.864,109.001 Z" class="cls-2"/>
</svg>
