<svg xmlns="http://www.w3.org/2000/svg" xmlns:xlink="http://www.w3.org/1999/xlink" preserveAspectRatio="xMidYMid" width="26" height="22" viewBox="0 0 26 22">
  <defs>
    <style>
      .cls-1 {
        fill: #fff;
        fill-rule: evenodd;
      }
    </style>
  </defs>
  <path d="M6.859,-157.503 L6.859,-164.641 L190.339,-164.641 L190.339,-157.503 L6.859,-157.503 ZM9.829,-118.573 L7.362,-118.573 L7.362,-140.813 L11.158,-140.813 L13.076,-126.513 L13.134,-126.513 L15.039,-140.813 L18.860,-140.813 L18.860,-118.573 L16.372,-118.573 L16.372,-133.637 L16.596,-136.591 L16.505,-136.591 L14.017,-118.573 L12.181,-118.573 L9.701,-136.591 L9.605,-136.591 L9.829,-133.637 L9.829,-118.573 ZM25.005,22.001 L0.739,22.001 L-0.006,22.001 L12.494,0.001 L25.005,22.001 ZM23.511,21.119 L12.494,1.757 L1.490,21.119 L23.511,21.119 ZM38.734,-138.456 L34.669,-138.456 L34.669,-131.511 L37.275,-131.511 L37.275,-129.159 L34.669,-129.159 L34.669,-120.931 L38.734,-120.931 L38.734,-118.573 L32.190,-118.573 L32.190,-140.813 L38.734,-140.813 L38.734,-138.456 ZM58.307,-138.456 L53.727,-138.456 L53.727,-131.481 L54.775,-131.481 C55.689,-131.481 57.576,-131.218 58.394,-129.189 C58.880,-128.013 58.906,-126.707 58.906,-125.601 L58.906,-123.569 C58.906,-122.287 58.684,-120.644 58.053,-119.787 C57.760,-119.410 57.008,-118.573 55.505,-118.573 L51.248,-118.573 L51.248,-140.813 L58.307,-140.813 L58.307,-138.456 ZM53.727,-120.931 L54.775,-120.931 C55.029,-120.931 55.634,-120.931 55.994,-121.346 C56.265,-121.684 56.344,-122.463 56.344,-123.022 L56.344,-126.273 C56.344,-127.311 56.265,-127.853 56.108,-128.233 C55.789,-129.036 55.216,-129.119 54.745,-129.119 L53.727,-129.119 L53.727,-120.931 ZM78.344,-138.456 L74.285,-138.456 L74.285,-131.511 L76.891,-131.511 L76.891,-129.159 L74.285,-129.159 L74.285,-120.931 L78.344,-120.931 L78.344,-118.573 L71.806,-118.573 L71.806,-140.813 L78.344,-140.813 L78.344,-138.456 ZM84.731,-105.896 C85.524,-104.899 85.586,-103.543 85.586,-102.299 L85.586,-100.076 C85.586,-99.282 85.553,-98.399 85.137,-97.661 C84.757,-96.962 84.193,-96.653 83.556,-96.524 L83.524,-96.424 C84.603,-96.108 85.137,-95.404 85.403,-94.775 C85.682,-94.075 85.682,-93.249 85.682,-92.354 L85.682,-89.184 C85.682,-88.231 85.682,-87.186 85.137,-86.295 C84.703,-85.584 83.904,-84.870 82.474,-84.870 L78.064,-84.870 L78.064,-107.095 L81.865,-107.095 C83.398,-107.095 84.284,-106.426 84.731,-105.896 ZM80.538,-87.213 L81.588,-87.213 C81.907,-87.213 82.571,-87.245 82.921,-87.756 C83.108,-88.038 83.205,-88.485 83.205,-89.281 L83.205,-92.589 C83.205,-93.412 83.205,-94.172 82.894,-94.712 C82.438,-95.436 81.687,-95.474 81.269,-95.474 L80.538,-95.474 L80.538,-87.213 ZM80.538,-104.735 L80.538,-97.754 L81.526,-97.754 C81.865,-97.754 82.384,-97.790 82.767,-98.206 C83.084,-98.583 83.135,-99.214 83.135,-99.955 L83.135,-102.615 C83.135,-103.091 83.135,-103.791 82.737,-104.241 C82.438,-104.521 81.938,-104.735 81.269,-104.735 L80.538,-104.735 ZM90.960,-122.009 C91.364,-122.826 91.621,-124.132 91.882,-127.183 C92.069,-129.425 92.124,-131.946 92.124,-134.043 L92.124,-140.813 L98.353,-140.813 L98.353,-118.573 L95.887,-118.573 L95.887,-138.456 L94.291,-138.456 L94.291,-133.154 C94.291,-131.164 94.036,-126.607 93.914,-125.381 C93.788,-124.229 93.559,-122.463 93.059,-121.086 C92.191,-118.769 91.077,-118.573 90.320,-118.573 L89.998,-118.573 L89.998,-120.931 C90.442,-121.220 90.743,-121.569 90.960,-122.009 ZM103.631,-107.095 L106.428,-84.870 L103.883,-84.870 L103.447,-88.961 L100.651,-88.961 L100.199,-84.870 L97.654,-84.870 L100.452,-107.095 L103.631,-107.095 ZM103.214,-91.319 L102.075,-102.299 L102.008,-102.335 L100.871,-91.319 L103.214,-91.319 ZM114.232,-131.342 L115.255,-131.342 C116.820,-131.342 117.733,-130.575 118.014,-130.335 C118.970,-129.463 119.412,-128.335 119.412,-126.075 L119.412,-123.445 C119.412,-121.753 119.189,-120.484 118.460,-119.621 C117.607,-118.614 116.615,-118.573 115.800,-118.573 L111.753,-118.573 L111.753,-140.813 L114.232,-140.813 L114.232,-131.342 ZM114.232,-120.931 L115.125,-120.931 C115.548,-120.931 116.072,-120.966 116.470,-121.346 C116.905,-121.784 116.905,-122.510 116.905,-122.998 L116.905,-126.011 C116.905,-126.835 116.864,-127.760 116.470,-128.335 C116.011,-128.932 115.285,-128.993 114.896,-128.993 L114.232,-128.993 L114.232,-120.931 ZM121.318,-98.050 L123.993,-98.050 L123.993,-107.095 L126.474,-107.095 L126.474,-84.870 L123.993,-84.870 L123.993,-95.702 L121.318,-95.702 L121.318,-84.870 L118.840,-84.870 L118.840,-107.095 L121.318,-107.095 L121.318,-98.050 ZM140.405,-127.829 C140.821,-131.064 140.794,-133.221 140.794,-135.602 L140.821,-140.813 L147.208,-140.813 L147.208,-120.931 L148.722,-120.931 L148.722,-114.453 L146.509,-114.453 L146.509,-118.573 L140.028,-118.573 L140.028,-114.453 L137.803,-114.453 L137.803,-120.931 L139.043,-120.931 C139.677,-123.222 140.122,-125.435 140.405,-127.829 ZM144.730,-120.931 L144.730,-138.456 L143.011,-138.456 L143.011,-133.637 C143.011,-131.481 142.785,-128.739 142.564,-126.934 C142.321,-124.861 141.943,-122.706 141.522,-120.931 L144.730,-120.931 ZM142.291,-98.050 L144.965,-98.050 L144.965,-107.095 L147.432,-107.095 L147.432,-84.870 L144.965,-84.870 L144.965,-95.702 L142.291,-95.702 L142.291,-84.870 L139.806,-84.870 L139.806,-107.095 L142.291,-107.095 L142.291,-98.050 ZM161.181,-122.009 C161.604,-122.826 161.853,-124.132 162.098,-127.183 C162.303,-129.425 162.352,-131.946 162.352,-134.043 L162.352,-140.813 L168.587,-140.813 L168.587,-118.573 L166.108,-118.573 L166.108,-138.456 L164.528,-138.456 L164.528,-133.154 C164.528,-131.164 164.266,-126.607 164.137,-125.381 C164.010,-124.229 163.786,-122.463 163.271,-121.086 C162.429,-118.769 161.308,-118.573 160.554,-118.573 L160.229,-118.573 L160.229,-120.931 C160.677,-121.220 160.958,-121.569 161.181,-122.009 ZM161.470,-106.113 C161.826,-106.560 162.680,-107.415 164.429,-107.415 C166.169,-107.415 167.037,-106.560 167.383,-106.113 C168.298,-104.939 168.201,-103.344 168.201,-102.208 L168.201,-89.754 C168.201,-88.599 168.298,-87.025 167.383,-85.856 C167.037,-85.397 166.169,-84.543 164.429,-84.543 C162.680,-84.543 161.826,-85.397 161.470,-85.856 C160.554,-87.025 160.651,-88.599 160.651,-89.754 L160.651,-102.208 C160.651,-103.344 160.554,-104.939 161.470,-106.113 ZM163.130,-89.212 C163.130,-88.105 163.177,-87.719 163.310,-87.496 C163.479,-87.186 163.847,-86.897 164.429,-86.897 C164.993,-86.897 165.370,-87.186 165.538,-87.496 C165.675,-87.719 165.722,-88.105 165.722,-89.212 L165.722,-102.753 C165.722,-103.863 165.675,-104.241 165.538,-104.463 C165.370,-104.782 164.993,-105.063 164.429,-105.063 C163.847,-105.063 163.479,-104.782 163.310,-104.463 C163.177,-104.241 163.130,-103.863 163.130,-102.753 L163.130,-89.212 ZM181.824,-126.487 C181.824,-127.244 181.897,-128.487 182.680,-129.318 C183.013,-129.635 183.417,-129.847 183.835,-129.985 L183.835,-130.103 C183.458,-130.178 182.777,-130.335 182.271,-131.031 C181.574,-131.946 181.613,-133.344 181.613,-134.174 L181.613,-136.591 C181.613,-137.450 181.638,-138.527 182.314,-139.409 C183.320,-140.781 184.906,-140.813 186.022,-140.813 L189.134,-140.813 L189.134,-118.573 L186.655,-118.573 L186.655,-128.806 L186.022,-128.806 C185.510,-128.806 184.888,-128.640 184.593,-128.264 C184.333,-127.926 184.303,-127.280 184.303,-126.458 L184.303,-121.220 C184.303,-119.848 184.177,-119.211 183.864,-118.573 L181.136,-118.573 L181.136,-118.741 C181.824,-119.525 181.824,-120.284 181.824,-121.723 L181.824,-126.487 ZM183.984,-133.824 C183.984,-133.094 184.025,-132.147 184.496,-131.666 C184.906,-131.286 185.672,-131.164 186.178,-131.164 L186.655,-131.164 L186.655,-138.456 L186.082,-138.456 C185.482,-138.456 184.984,-138.430 184.472,-137.956 C183.966,-137.450 183.984,-136.933 183.984,-136.368 L183.984,-133.824 ZM183.197,-108.721 C182.467,-109.382 182.337,-110.335 182.337,-110.906 L184.236,-110.906 C184.236,-110.627 184.273,-110.277 184.373,-110.084 C184.472,-109.827 184.762,-109.538 185.256,-109.538 C185.771,-109.538 186.052,-109.827 186.151,-110.084 C186.248,-110.277 186.274,-110.627 186.274,-110.906 L188.181,-110.906 C188.181,-110.335 188.055,-109.382 187.327,-108.721 C186.782,-108.212 186.022,-107.952 185.256,-107.952 C184.496,-107.952 183.730,-108.212 183.197,-108.721 ZM183.935,-96.551 L183.770,-94.932 L186.595,-103.475 L186.595,-107.095 L189.073,-107.095 L189.073,-84.870 L186.595,-84.870 L186.595,-96.108 L186.751,-97.661 L183.935,-89.119 L183.935,-84.870 L181.448,-84.870 L181.448,-107.095 L183.935,-107.095 L183.935,-96.551 Z" class="cls-1"/>
</svg>
