<?xml version="1.0" encoding="utf-8"?>
<!-- Generator: Adobe Illustrator 19.0.0, SVG Export Plug-In . SVG Version: 6.00 Build 0)  -->
<svg version="1.1" id="Layer_1" xmlns="http://www.w3.org/2000/svg" xmlns:xlink="http://www.w3.org/1999/xlink" x="0px" y="0px"
	 viewBox="-273 365 64 64" style="enable-background:new -273 365 64 64;" xml:space="preserve">
<style type="text/css">
	.st0{fill:#55ACEE;}
	.st1{enable-background:new    ;}
	.st2{fill:#FFFFFF;}
</style>
<title>Group 6</title>
<desc>Created with Sketch.</desc>
<g id="Page-1">
	<g id="_x30_---LOGIN" transform="translate(-593.000000, -595.000000)">
		<g id="popUp---login" transform="translate(345.000000, 148.000000)">
			<g id="LOGIN" transform="translate(0.000000, 181.000000)">
				<g id="btns" transform="translate(248.000000, 90.000000)">
					<g id="Group-6" transform="translate(0.000000, 176.000000)">
						<path id="Rectangle-300" class="st0" d="M-241,365L-241,365c17.7,0,32,14.3,32,32l0,0c0,17.7-14.3,32-32,32l0,0
							c-17.7,0-32-14.3-32-32l0,0C-273,379.3-258.7,365-241,365z"/>
						<g class="st1">
							<path class="st2" d="M-235,394.4c0,0.1,0,0.2,0,0.4c0,3.8-2.9,8.2-8.2,8.2c-1.6,0-3.2-0.5-4.4-1.3c0.2,0,0.5,0,0.7,0
								c1.3,0,2.6-0.5,3.6-1.2c-1.3,0-2.3-0.9-2.7-2c0.2,0,0.4,0,0.5,0c0.3,0,0.5,0,0.8-0.1c-1.3-0.3-2.3-1.4-2.3-2.8c0,0,0,0,0,0
								c0.4,0.2,0.8,0.3,1.3,0.4c-0.8-0.5-1.3-1.4-1.3-2.4c0-0.5,0.1-1,0.4-1.5c1.4,1.8,3.6,2.9,5.9,3c0-0.2-0.1-0.4-0.1-0.7
								c0-1.6,1.3-2.9,2.9-2.9c0.8,0,1.6,0.3,2.1,0.9c0.7-0.1,1.3-0.4,1.8-0.7c-0.2,0.7-0.7,1.2-1.3,1.6c0.6-0.1,1.1-0.2,1.7-0.4
								C-233.9,393.5-234.4,394-235,394.4z"/>
						</g>
					</g>
				</g>
			</g>
		</g>
	</g>
</g>
</svg>
