<?xml version="1.0" encoding="utf-8"?>
<!-- Generator: Adobe Illustrator 19.0.0, SVG Export Plug-In . SVG Version: 6.00 Build 0)  -->
<svg version="1.1" id="Layer_1" xmlns="http://www.w3.org/2000/svg" xmlns:xlink="http://www.w3.org/1999/xlink" x="0px" y="0px"
	 viewBox="-273 365 64 64" style="enable-background:new -273 365 64 64;" xml:space="preserve">
<style type="text/css">
	.st0{fill:#45668E;}
	.st1{enable-background:new    ;}
	.st2{fill:#FFFFFF;}
</style>
<title>Group 4</title>
<desc>Created with Sketch.</desc>
<g id="Page-1">
	<g id="_x30_---LOGIN" transform="translate(-596.000000, -419.000000)">
		<g id="popUp---login" transform="translate(345.000000, 148.000000)">
			<g id="LOGIN" transform="translate(0.000000, 181.000000)">
				<g id="btns" transform="translate(248.000000, 90.000000)">
					<g id="Group-4" transform="translate(3.000000, 0.000000)">
						<path id="Rectangle-300" class="st0" d="M-241,365L-241,365c17.7,0,32,14.3,32,32l0,0c0,17.7-14.3,32-32,32l0,0
							c-17.7,0-32-14.3-32-32l0,0C-273,379.3-258.7,365-241,365z"/>
						<g class="st1">
							<path class="st2" d="M-234.2,395.6c-1.7,2.3-1.9,2.1-0.5,3.4c1.4,1.3,1.7,1.9,1.7,2c0,0,0.6,1-0.6,1l-2.3,0
								c-0.5,0.1-1.1-0.3-1.1-0.3c-0.9-0.6-1.7-2.1-2.3-1.9c0,0-0.6,0.2-0.6,1.6c0,0.3-0.1,0.5-0.1,0.5s-0.2,0.2-0.5,0.2h-1
								c-2.3,0.1-4.2-1.9-4.2-1.9s-2.2-2.2-4.1-6.7c-0.1-0.3,0-0.4,0-0.4s0.1-0.2,0.5-0.2l2.4,0c0.2,0,0.4,0.2,0.4,0.2
								s0.1,0.1,0.2,0.3c0.4,1,0.9,1.9,0.9,1.9c0.9,1.8,1.5,2.2,1.8,2c0,0,0.5-0.3,0.4-2.5c0-0.8-0.3-1.2-0.3-1.2
								c-0.2-0.3-0.6-0.4-0.8-0.4c-0.1,0,0.1-0.3,0.4-0.5c0.4-0.2,1.2-0.2,2.1-0.2c0.7,0,0.9,0.1,1.2,0.1c0.8,0.2,0.6,1,0.6,2.9
								c0,0.6-0.1,1.5,0.3,1.7c0.2,0.1,0.7,0,1.8-1.9c0,0,0.5-0.9,1-2c0.1-0.2,0.2-0.3,0.2-0.3s0.1-0.1,0.3-0.1l2.6,0
								c0.8-0.1,0.9,0.3,0.9,0.3C-232.8,393.3-233.2,394.2-234.2,395.6z"/>
						</g>
					</g>
				</g>
			</g>
		</g>
	</g>
</g>
</svg>
