<?xml version="1.0" encoding="utf-8"?>
<!-- Generator: Adobe Illustrator 19.0.0, SVG Export Plug-In . SVG Version: 6.00 Build 0)  -->
<svg version="1.1" id="Layer_1" xmlns="http://www.w3.org/2000/svg" xmlns:xlink="http://www.w3.org/1999/xlink" x="0px" y="0px"
	 viewBox="-295 391 20 11" style="enable-background:new -295 391 20 11;" xml:space="preserve">
<style type="text/css">
	.st0{enable-background:new    ;}
	.st1{fill:#F36976;}
</style>
<title></title>
<desc>Created with Sketch.</desc>
<g id="Page-1">
	<g id="_x39_---textPage" transform="translate(-1182.000000, -3884.000000)">
		<g id="CONTENT" transform="translate(127.000000, 979.000000)">
			<g id="info" transform="translate(17.000000, 2885.000000)">
				<g id="Group-10" transform="translate(928.000000, 3.000000)">
					<g id="socialButtons" transform="translate(98.000000, 0.000000)">
						<g id="btn-vk">
							<g class="st0">
								<path class="st1" d="M-265,411.8c-1.9,2.6-2.2,2.3-0.6,3.8c1.5,1.4,1.9,2.1,1.9,2.2c0,0,0.6,1.1-0.7,1.1l-2.6,0
									c-0.6,0.1-1.3-0.4-1.3-0.4c-1-0.7-1.9-2.4-2.6-2.2c0,0-0.7,0.2-0.7,1.8c0,0.3-0.2,0.5-0.2,0.5s-0.2,0.2-0.5,0.2h-1.2
									c-2.5,0.2-4.8-2.2-4.8-2.2s-2.4-2.5-4.6-7.6c-0.1-0.3,0-0.5,0-0.5s0.2-0.2,0.6-0.2l2.8,0c0.3,0,0.4,0.2,0.4,0.2
									s0.2,0.1,0.2,0.3c0.5,1.1,1,2.1,1,2.1c1,2.1,1.7,2.4,2.1,2.2c0,0,0.5-0.3,0.4-2.8c0-0.9-0.3-1.3-0.3-1.3
									c-0.2-0.3-0.7-0.4-0.9-0.4c-0.2,0,0.1-0.4,0.4-0.5c0.5-0.2,1.4-0.3,2.4-0.2c0.8,0,1,0.1,1.4,0.1c1,0.2,0.6,1.1,0.6,3.2
									c0,0.7-0.1,1.6,0.4,1.9c0.2,0.1,0.7,0,2-2.2c0,0,0.6-1,1.1-2.3c0.1-0.2,0.3-0.3,0.3-0.3s0.2-0.1,0.4-0.1l2.9,0
									c0.9-0.1,1,0.3,1,0.3C-263.3,409.2-263.8,410.2-265,411.8z"/>
							</g>
						</g>
					</g>
				</g>
			</g>
		</g>
	</g>
</g>
</svg>
