<?xml version="1.0" encoding="utf-8"?>
<!-- Generator: Adobe Illustrator 19.0.0, SVG Export Plug-In . SVG Version: 6.00 Build 0)  -->
<svg version="1.1" id="Layer_1" xmlns="http://www.w3.org/2000/svg" xmlns:xlink="http://www.w3.org/1999/xlink" x="0px" y="0px"
	 viewBox="-284 372.1 43 42.5" style="enable-background:new -284 372.1 43 42.5;" xml:space="preserve">
<style type="text/css">
	.st0{fill:#A9D7D4;}
	.st1{enable-background:new    ;}
	.st2{fill:#FFFFFF;}
</style>
<title>btn-vk</title>
<desc>Created with Sketch.</desc>
<g id="Page-1_1_">
	<g id="_x32_.1---collection" transform="translate(-47.000000, -760.000000)">
		<g id="FIRST-SCREEN" transform="translate(47.000000, 120.000000)">
			<g id="socialButtons" transform="translate(0.000000, 640.000000)">
				<g id="btn-vk">
					<polygon id="Page-1" class="st0" points="-262.5,372.1 -283.8,393.4 -262.5,414.7 -241.2,393.4 					"/>
					<g class="st1">
						<path class="st2" d="M-257,392c-1.6,2.2-1.8,2-0.5,3.2c1.3,1.2,1.6,1.8,1.6,1.9c0,0,0.5,0.9-0.6,0.9l-2.1,0
							c-0.5,0.1-1.1-0.3-1.1-0.3c-0.8-0.6-1.6-2-2.1-1.8c0,0-0.6,0.2-0.6,1.5c0,0.3-0.1,0.4-0.1,0.4s-0.2,0.2-0.4,0.2h-1
							c-2.1,0.1-4-1.8-4-1.8s-2-2.1-3.8-6.3c-0.1-0.3,0-0.4,0-0.4s0.1-0.2,0.5-0.2l2.3,0c0.2,0,0.4,0.2,0.4,0.2s0.1,0.1,0.2,0.3
							c0.4,0.9,0.9,1.8,0.9,1.8c0.8,1.7,1.4,2,1.7,1.8c0,0,0.4-0.3,0.3-2.3c0-0.8-0.2-1.1-0.2-1.1c-0.2-0.3-0.6-0.3-0.7-0.4
							c-0.1,0,0.1-0.3,0.4-0.5c0.4-0.2,1.1-0.2,2-0.2c0.7,0,0.9,0,1.1,0.1c0.8,0.2,0.5,0.9,0.5,2.7c0,0.6-0.1,1.4,0.3,1.6
							c0.2,0.1,0.6,0,1.7-1.8c0,0,0.5-0.9,0.9-1.9c0.1-0.2,0.2-0.3,0.2-0.3s0.1-0.1,0.3,0l2.4,0c0.7-0.1,0.8,0.2,0.8,0.2
							C-255.6,389.8-256,390.6-257,392z"/>
					</g>
				</g>
			</g>
		</g>
	</g>
</g>
</svg>
