<?xml version="1.0" encoding="UTF-8" standalone="no"?>
<!DOCTYPE svg  PUBLIC '-//W3C//DTD SVG 1.1//EN'  'http://www.w3.org/Graphics/SVG/1.1/DTD/svg11.dtd'>
<svg xmlns="http://www.w3.org/2000/svg">
<defs>
<font id="ReformaGroteskMediumC-Regular" horiz-adv-x="410">
<font-face underline-position="-50" font-weight="500" descent="-200" panose-1="0 0 6 0 0 0 0 0 0 0" units-per-em="1000" unicode-range="U+0020-2265" bbox="-30 -165 498 867" x-height="512" underline-thickness="50" font-family="ReformaGroteskMediumC" ascent="800" cap-height="700"/>
<missing-glyph horiz-adv-x="1000"/>
<glyph glyph-name=".notdef" horiz-adv-x="1000"/>
<glyph glyph-name=".null" horiz-adv-x="0"/>
<glyph glyph-name="nonmarkingreturn" horiz-adv-x="333"/>
<glyph glyph-name="space" horiz-adv-x="233" unicode=" "/>
<glyph glyph-name="space" horiz-adv-x="233" unicode=" "/>
<glyph glyph-name="exclam" horiz-adv-x="138" unicode="!" d="M88 212h-38l-20 401v87h78v-87zM108 0h-78v120h78v-120z"/>
<glyph glyph-name="quotedbl" horiz-adv-x="228" unicode='&quot;' d="M181 462h-28l-18 126v112h63v-112zM75 462h-28l-17 126v112h63v-112z"/>
<glyph glyph-name="numbersign" horiz-adv-x="408" unicode="#" d="M225 312l24 120h-70l-24 -120h70zM229 0h-65l48 247h-70l-48 -247h-65l47 247h-71l14 65h71l24 120h-67l15 65h68l39 203h65l-40 -203h70l40 203h65l-41 -203h75l-14 -65h-75l-24 -120h72l-13 -65h-72z"/>
<glyph glyph-name="dollar" horiz-adv-x="284" unicode="$" d="M25 233h70v-104q0 -27 4 -38q8 -27 43 -27q20 0 29 10q10 12 10 49v40q0 58 -32 110l-66 104q-24 38 -38 75q-20 53 -20 106v18q0 56 28 93q21 27 55 37v68h66v-67q37 -8 59 -40t22 -99v-7v-71h-70v82q0 35 -11 50q-10 14 -32 14q-19 0 -29 -16q-10 -14 -10 -37v-10 q0 -71 35 -126l65 -101q56 -87 56 -190v-12q0 -81 -26 -116q-24 -33 -60 -37v-67h-65v70q-27 6 -48 26q-35 34 -35 126v87z"/>
<glyph glyph-name="percent" horiz-adv-x="491" unicode="%" d="M413 253q0 20 -5 28q-7 12 -25 12q-17 0 -24 -12q-6 -11 -6 -28v-156q0 -17 6 -28q7 -12 24 -12q18 0 25 12q5 8 5 28v156zM471 208v-66q0 -69 -19 -99q-23 -39 -70 -39q-43 0 -69 39q-18 29 -18 83v16v66v16q0 54 18 83q26 39 69 39q47 0 70 -39q19 -30 19 -99zM171 0 h-59l200 700h60zM138 607q0 20 -5 28q-7 12 -25 12q-17 0 -24 -12q-6 -11 -6 -28v-156q0 -17 6 -28q7 -12 24 -12q18 0 25 12q5 8 5 28v156zM196 562v-66q0 -70 -18 -99q-24 -39 -70 -39q-43 0 -69 39q-19 30 -19 99v66q0 69 19 99q26 39 69 39q46 0 70 -39q18 -29 18 -99z "/>
<glyph glyph-name="ampersand" horiz-adv-x="354" unicode="&amp;" d="M150 430l29 52q15 28 15 61v46q0 27 -9 38q-11 13 -33 13q-26 0 -37 -14q-9 -11 -9 -35v-38q0 -20 11 -46zM226 104l-93 209l-24 -45q-10 -18 -10 -71v-76q0 -26 12 -38q11 -13 34 -13h41q12 0 23.5 10.5t16.5 23.5zM349 0h-71l-15 34q-25 -34 -61 -34h-72q-55 0 -82 43 q-23 36 -23 96v90q0 25 9 56q7 22 22 43l39 55l-40 84q-23 46 -23 86v28q0 65 32 97t88 32t86 -35q30 -34 30 -95v-40q0 -64 -33 -109l-46 -64l75 -162v146h67v-115q0 -81 -27 -132z"/>
<glyph glyph-name="quotesingle" horiz-adv-x="124" unicode="&apos;" d="M76 462h-28l-18 126v112h64v-112z"/>
<glyph glyph-name="parenleft" horiz-adv-x="169" unicode="(" d="M159 -85v-75q-57 31 -96 100q-31 56 -31 150v370q0 94 31 150q39 69 96 100v-75q-33 -28 -45 -70q-10 -34 -10 -97v-386q0 -63 10 -97q12 -42 45 -70z"/>
<glyph glyph-name="parenright" horiz-adv-x="169" unicode=")" d="M10 -160v75q33 28 45 70q10 34 10 97v386q0 63 -10 97q-12 42 -45 70v75q57 -31 96 -100q31 -56 31 -150v-370q0 -94 -31 -150q-39 -69 -96 -100z"/>
<glyph glyph-name="asterisk" horiz-adv-x="244" unicode="*" d="M147 700l-11 -98l63 48l15 -72l-70 -12l52 -69l-44 -43l-30 89l-31 -89l-43 44l52 68l-70 13l16 71l62 -48l-12 98h51z"/>
<glyph glyph-name="plus" d="M235 196h-60v135h-135v60h135v135h60v-135h135v-60h-135v-135z" unicode="+"/>
<glyph glyph-name="comma" horiz-adv-x="139" unicode="," d="M66 -132h-36l33 132h-32v120h78v-129z"/>
<glyph glyph-name="hyphen" horiz-adv-x="174" unicode="-" d="M10 236v62h154v-62h-154z"/>
<glyph glyph-name="hyphen" horiz-adv-x="174" unicode="­" d="M10 236v62h154v-62h-154z"/>
<glyph glyph-name="period" horiz-adv-x="138" unicode="." d="M30 0v120h78v-120h-78z"/>
<glyph glyph-name="slash" horiz-adv-x="318" unicode="/" d="M65 -160h-60l248 860h60z"/>
<glyph glyph-name="zero" horiz-adv-x="304" unicode="0" d="M194 126v445q0 30 -7 45q-10 20 -35 20t-35 -20q-7 -15 -7 -45v-445v-8q0 -24 8 -38q10 -16 34 -16t34 16q8 14 8 38v8zM152 -10q-50 0 -80 30q-40 39 -40 138v369v8q0 90 32 131q35 44 88 44t88 -44q32 -41 32 -131v-8v-369q0 -99 -40 -138q-30 -30 -80 -30z"/>
<glyph glyph-name="one" horiz-adv-x="183" unicode="1" d="M148 0h-78v557q-28 -22 -60 -27v70q23 8 42 27q25 28 31 73h65v-700z"/>
<glyph glyph-name="two" horiz-adv-x="290" unicode="2" d="M258 0h-238q0 4 -0.5 12t-0.5 13q0 96 32 172q14 33 51 94q21 36 36 64q32 61 42 110q7 34 7 87q0 39 -8 54q-10 20 -36 20t-39 -23q-7 -14 -7 -58v-62l-70 1v28q0 109 25 144q33 44 97 44q58 0 88 -40q26 -34 28 -105v-22q0 -71 -20 -131q-16 -49 -60 -126 q-22 -38 -34 -57t-23 -37q-31 -54 -36 -108h166v-74z"/>
<glyph glyph-name="three" horiz-adv-x="283" unicode="3" d="M20 230h70v-82q0 -48 8 -62q11 -22 36 -22q27 0 36 22q5 12 5 51v126q0 41 -5 55q-8 23 -31 23h-39v74h36q36 0 36 56v110q0 26 -8 39q-11 16 -33 16q-20 0 -31 -15q-8 -12 -8 -43v-73h-68v52q0 62 14 93q29 60 96 60q65 0 96 -54q20 -34 20 -91v-55q0 -75 -22 -107 q-14 -20 -36 -25v-3q41 -15 54 -56q7 -23 7 -53v-107q0 -73 -16 -107q-29 -62 -101 -62q-71 0 -98 62q-18 39 -18 118v60z"/>
<glyph glyph-name="four" horiz-adv-x="318" unicode="4" d="M175 222v305l-100 -305h100zM253 0h-78v152h-165v69l169 479h74v-478h50v-70h-50v-152z"/>
<glyph glyph-name="five" horiz-adv-x="291" unicode="5" d="M25 203h73v-67q0 -35 11 -53q12 -19 37 -19t34 16q8 16 8 56v189q0 37 -9 53q-12 19 -37 19q-24 0 -38 -18q-9 -12 -9 -31v-21h-60v373h210v-74h-150v-197q2 1 12.5 8.5t13.5 9.5q27 16 56 16q44 0 66 -36q23 -38 23 -147v-118q0 -67 -12 -100q-26 -72 -101 -72 q-81 0 -111 75q-14 35 -16 107z"/>
<glyph glyph-name="six" horiz-adv-x="298" unicode="6" d="M150 64q24 0 33 16q7 14 7 54v138q0 38 -8 53q-10 17 -33 17q-20 0 -30 -16q-9 -15 -9 -56v-136q0 -35 8 -51q11 -19 32 -19zM154 -10q-79 0 -107 75q-15 42 -15 154v290q0 102 25 147q30 54 93 54q61 0 90 -51q18 -32 18 -97v-9v-58h-68v70q0 42 -7 54q-9 17 -32 17 q-22 0 -32 -16q-9 -14 -9 -48v-9v-191q11 15 26 25q23 15 43 15q40 0 61 -29q28 -35 28 -136v-82q0 -68 -13 -103q-27 -72 -101 -72z"/>
<glyph glyph-name="seven" horiz-adv-x="249" unicode="7" d="M128 0h-78q0 114 22 238q27 150 59 256q21 67 48 132h-164v74h224v-60q-16 -55 -38 -141q-43 -171 -58 -308q-13 -118 -15 -191z"/>
<glyph glyph-name="eight" horiz-adv-x="290" unicode="8" d="M145 413q29 0 37 21q5 12 5 40v106q0 28 -9 41q-10 15 -33 15t-33 -15q-9 -13 -9 -41v-106q0 -28 5 -40q8 -21 37 -21zM145 64q26 0 36 20q6 12 6 58v119q0 46 -5 61q-9 27 -37 27t-37 -27q-5 -15 -5 -61v-119q0 -46 6 -58q10 -20 36 -20zM146 -10q-63 0 -96 49 q-25 37 -25 106v107q0 47 11 76q14 36 49 52q-16 7 -28 22q-27 33 -27 106v47q0 83 33 121q30 34 82 34t82 -34q33 -38 33 -121v-47q0 -73 -27 -106q-12 -15 -28 -22q35 -16 49 -52q11 -29 11 -76v-107q0 -69 -25 -106q-33 -49 -94 -49z"/>
<glyph glyph-name="nine" horiz-adv-x="293" unicode="9" d="M144 636q-23 0 -33 -18q-8 -13 -8 -52v-138q0 -41 8 -54q10 -16 33 -16q20 0 30 19q9 13 9 56v133q0 38 -8 52q-10 18 -31 18zM139 710q79 0 107 -75q15 -42 15 -154v-290q0 -102 -25 -147q-30 -54 -93 -54q-58 0 -87 51q-21 37 -21 120v44h68v-54q0 -48 7 -65 q10 -22 33 -22q20 0 31 16q9 13 9 57v191q-11 -15 -26 -25q-23 -15 -48 -15q-34 0 -56 29q-28 35 -28 136v82q0 68 13 103q27 72 101 72z"/>
<glyph glyph-name="colon" horiz-adv-x="138" unicode=":" d="M30 392v120h78v-120h-78zM30 0v120h78v-120h-78z"/>
<glyph glyph-name="semicolon" horiz-adv-x="139" unicode=";" d="M66 -132h-36l33 132h-32v120h78v-129zM31 392v120h78v-120h-78z"/>
<glyph glyph-name="less" d="M370 212v-60l-330 179v28l330 179v-60l-247 -131z" unicode="&lt;"/>
<glyph glyph-name="equal" d="M40 250v60h330v-60h-330zM40 397v60h330v-60h-330z" unicode="="/>
<glyph glyph-name="greater" d="M40 212l247 135l-247 131v60l330 -179v-28l-330 -179v60z" unicode="&gt;"/>
<glyph glyph-name="question" horiz-adv-x="244" unicode="?" d="M149 0h-78v120h78v-120zM139 200h-58v89q0 11 1.5 20.5t4.5 19t5 16t7.5 18t7.5 17.5l30 72q20 48 20 112v13q0 21 -5 38q-9 25 -34 25q-26 0 -35 -24q-6 -17 -6 -58q0 -37 5 -71h-67v93q0 62 25 93q30 37 84 37q57 0 85 -43q20 -31 20 -90v-35q0 -53 -21 -104 q-17 -41 -42 -80q-27 -42 -27 -70v-88z"/>
<glyph glyph-name="at" horiz-adv-x="439" unicode="@" d="M196 494v-267q0 -19 3 -31q5 -18 20 -18t21 20q5 17 5 42v223q0 33 -4 42q-6 16 -20 16q-11 0 -18 -7t-7 -20zM407 0h-257q-53 0 -83 30q-35 35 -35 100v432q0 67 32 101q35 37 84 37h152q54 0 84 -40q23 -32 23 -97v-311q0 -54 -15 -84q-20 -38 -59 -38h-37 q-44 0 -48 40q-4 -17 -15 -32q-14 -18 -39 -18q-35 0 -49 36q-7 17 -7 64v262q0 40 10 63q15 34 48 34q18 0 33 -18q13 -17 17 -31v41h59v-365q0 -23 17 -23q5 0 11 3q16 10 16 37v333v14q0 41 -17 56q-18 16 -49 16h-120q-46 0 -64 -40q-9 -20 -9 -60v-11v-381v-21 q0 -34 20 -53q19 -18 51 -18h246v-58z"/>
<glyph glyph-name="A" horiz-adv-x="290" unicode="A" d="M108 203h74l-36 346l-2 1zM283 0h-80l-14 129h-88l-14 -129h-80l88 700h100z"/>
<glyph glyph-name="B" horiz-adv-x="295" unicode="B" d="M113 406h31q26 0 39 14q12 14 12 55v84q0 37 -13 51q-16 16 -46 16h-23v-220zM113 74h33q30 0 42 17q9 14 9 48v104q0 50 -10 67q-15 24 -51 24h-23v-260zM35 0v700h120q59 0 90 -38q27 -33 27 -113v-70q0 -51 -14 -76q-16 -29 -50 -36l-1 -3q43 -13 59 -52q9 -22 9 -76 v-100q0 -63 -17 -91q-29 -45 -84 -45h-139z"/>
<glyph glyph-name="C" horiz-adv-x="295" unicode="C" d="M151 64q24 0 33 18q8 14 8 67v115h78v-118q0 -76 -23 -110q-31 -46 -95 -46q-61 0 -94 47q-26 37 -26 122v8v384q0 80 26 115q32 44 98 44q58 0 88 -41q26 -35 26 -109v-19v-77h-74v105q0 39 -11 53q-12 14 -32 14t-32 -14q-11 -14 -11 -53v-420q0 -53 8 -67 q9 -18 33 -18z"/>
<glyph glyph-name="D" horiz-adv-x="309" unicode="D" d="M113 74h33q35 0 47 25q6 14 6 57v392q0 44 -8 58q-11 20 -44 20h-34v-552zM35 0v700h121q71 0 99 -44q22 -30 22 -114v-402q0 -66 -30 -102q-32 -38 -89 -38h-123z"/>
<glyph glyph-name="E" horiz-adv-x="251" unicode="E" d="M35 0v700h206v-74h-128v-219h82v-74h-82v-259h128v-74h-206z"/>
<glyph glyph-name="F" horiz-adv-x="247" unicode="F" d="M113 0h-78v700h205v-74h-127v-217h78v-74h-78v-335z"/>
<glyph glyph-name="G" horiz-adv-x="300" unicode="G" d="M268 365v-365h-39l-4 46h-3q-7 -20 -22 -35q-23 -21 -54 -21q-57 0 -87 38q-27 35 -27 108v437q0 69 32 102q33 35 86 35q56 0 87 -33q31 -32 31 -91v-110h-74v88q0 44 -10 58t-32 14t-32 -14t-10 -60v-432q0 -36 9 -50q11 -16 32 -16q22 0 32 16q11 17 11 53v158h-46v74 h120z"/>
<glyph glyph-name="H" horiz-adv-x="310" unicode="H" d="M197 341h-84v-341h-78v700h78v-285h84v285h78v-700h-78v341z"/>
<glyph glyph-name="I" horiz-adv-x="148" unicode="I" d="M35 0v700h78v-700h-78z"/>
<glyph glyph-name="J" horiz-adv-x="281" unicode="J" d="M246 700v-546v-15q0 -76 -24 -108q-29 -41 -83 -41q-61 0 -93 41q-26 34 -26 103v20v133h70v-153v-11q0 -29 8 -42q11 -17 32 -17t31 17q7 13 7 53v566h78z"/>
<glyph glyph-name="K" horiz-adv-x="305" unicode="K" d="M113 0h-78v700h78v-297l91 297h83l-106 -331l119 -369h-83l-104 338v-338z"/>
<glyph glyph-name="L" horiz-adv-x="247" unicode="L" d="M242 0h-207v700h78v-626h129v-74z"/>
<glyph glyph-name="M" horiz-adv-x="432" unicode="M" d="M245 0h-58l-78 567h-3l7 -93v-474h-78v700h120l60 -450h2l60 450h120v-700h-78v474l7 93h-3z"/>
<glyph glyph-name="N" horiz-adv-x="350" unicode="N" d="M211 0l-99 536l-3 -1l4 -64v-471h-78v700h111l93 -520h3l-5 59v461h78v-700h-104z"/>
<glyph glyph-name="O" horiz-adv-x="302" unicode="O" d="M110 563v-426q0 -43 6 -54q10 -19 35 -19t35 19q6 11 6 54v426q0 43 -6 54q-10 19 -35 19t-35 -19q-6 -11 -6 -54zM151 -10q-61 0 -93 41q-26 34 -26 103v20v392v20q0 69 26 103q32 41 93 41t93 -41q26 -34 26 -103v-20v-392v-20q0 -69 -26 -103q-32 -41 -93 -41z"/>
<glyph glyph-name="P" horiz-adv-x="295" unicode="P" d="M113 389h36h6q29 0 37 20q5 10 5 48v111q0 31 -12 45q-11 13 -37 13h-35v-237zM113 0h-78v700h122q62 0 93 -42q25 -34 25 -97v-119q0 -61 -25 -95q-24 -34 -72 -36h-8q-29 0 -57 4v-315z"/>
<glyph glyph-name="Q" horiz-adv-x="302" unicode="Q" d="M110 563v-426q0 -43 6 -54q10 -19 35 -19t35 19q6 11 6 54v426q0 43 -6 54q-10 19 -35 19t-35 -19q-6 -11 -6 -54zM175 -9v-10q0 -6 3 -9q4 -4 15 -4h52v-68h-73q-28 0 -40 19q-7 12 -7 38v35q-42 8 -67 39q-26 34 -26 103v20v392v20q0 69 26 103q32 41 93 41t93 -41 q26 -34 26 -103v-20v-392v-20q0 -69 -26 -103q-27 -35 -69 -40z"/>
<glyph glyph-name="R" horiz-adv-x="297" unicode="R" d="M113 396h30q31 0 44 18q10 12 10 54v96q0 35 -12 48q-13 14 -46 14h-26v-230zM287 0h-86q-14 28 -14 83v168q0 37 -10 51q-15 20 -42 20h-22v-322h-78v700h118q66 0 97 -46q22 -32 22 -93v-84q0 -61 -20 -87q-16 -21 -47 -27v-3q22 -7 34 -22q26 -29 26 -89v-150 q0 -28 1 -40t5.5 -27t15.5 -27v-5z"/>
<glyph glyph-name="S" horiz-adv-x="284" unicode="S" d="M25 233h70v-104q0 -27 4 -38q8 -27 43 -27q21 0 29 11q10 14 10 51v37q0 58 -32 110l-66 104q-26 42 -38 75q-20 55 -20 106v18q0 56 28 93q32 41 88 41q63 0 92 -43q22 -32 22 -99v-7v-71h-70v82q0 35 -11 50q-10 14 -32 14q-19 0 -29 -16q-10 -14 -10 -37v-10 q0 -72 35 -126l65 -101q56 -87 56 -190v-12q0 -80 -26 -116q-28 -38 -88 -38q-54 0 -85 30q-35 34 -35 126v87z"/>
<glyph glyph-name="T" horiz-adv-x="272" unicode="T" d="M175 0h-78v626h-92v74h262v-74h-92v-626z"/>
<glyph glyph-name="U" horiz-adv-x="304" unicode="U" d="M33 700h78v-566q0 -39 6 -51q9 -19 35 -19t35 19q6 12 6 51v566h78v-546v-20q0 -69 -26 -103q-32 -41 -93 -41t-93 41q-26 34 -26 103v20v546z"/>
<glyph glyph-name="V" horiz-adv-x="286" unicode="V" d="M183 0h-80l-95 700h78l54 -473l1 -38h4l1 38l54 473h78z"/>
<glyph glyph-name="W" horiz-adv-x="450" unicode="W" d="M362 0h-91l-42 436l-2 61h-4l-2 -61l-42 -436h-91l-78 700h80l41 -470v-40h5l3 55l41 455h90l41 -455l3 -55h5v40l41 470h80z"/>
<glyph glyph-name="X" horiz-adv-x="312" unicode="X" d="M307 0h-86l-60 212l-4 28h-2l-4 -28l-60 -212h-86l112 368l-101 332h86l51 -197l2 -22h2l2 22l51 197h86l-101 -331z"/>
<glyph glyph-name="Y" horiz-adv-x="298" unicode="Y" d="M186 0h-74v293l-107 407h80l60 -273l2 -25h4l2 25l60 273h80l-107 -407v-293z"/>
<glyph glyph-name="Z" horiz-adv-x="258" unicode="Z" d="M243 0h-228v63l134 563h-125v74h211v-58l-135 -568h143v-74z"/>
<glyph glyph-name="bracketleft" horiz-adv-x="205" unicode="[" d="M195 -150h-160v850h160v-71h-89v-708h89v-71z"/>
<glyph glyph-name="backslash" horiz-adv-x="318" unicode="\" d="M253 -160l-248 860h60l248 -860h-60z"/>
<glyph glyph-name="bracketright" horiz-adv-x="205" unicode="]" d="M10 -150v71h89v708h-89v71h160v-850h-160z"/>
<glyph glyph-name="asciicircum" horiz-adv-x="324" unicode="^" d="M10 422v68l152 195l152 -195v-68l-152 163z"/>
<glyph glyph-name="underscore" horiz-adv-x="330" unicode="_" d="M0 331v60h330v-60h-330z"/>
<glyph glyph-name="grave" horiz-adv-x="215" unicode="`" d="M160 554l-142 114l58 56l103 -152z"/>
<glyph glyph-name="a" horiz-adv-x="238" unicode="a" d="M145 256q-47 -39 -56 -63q-6 -18 -6 -50v-42q0 -25 4 -37q5 -13 18 -13q19 0 29 17q11 18 11 43v145zM213 0h-54l-9 31q-11 -18 -27 -29q-17 -12 -42 -12q-34 0 -50 25q-16 24 -16 64v75q0 32 7.5 53t33.5 48q32 32 89 72v93q0 17 -5 27q-7 13 -25 13t-25 -13 q-5 -10 -5 -27v-81h-68v70q0 55 21 81q26 32 78 32q57 0 78 -32q19 -25 19 -82v-408z"/>
<glyph glyph-name="b" horiz-adv-x="255" unicode="b" d="M162 115v262q0 39 -5 54q-7 17 -24 17q-19 0 -28 -19q-7 -15 -7 -54v-254q0 -34 6 -48q10 -21 29 -21q20 0 25 16q4 16 4 47zM98 700v-219q6 7 15 15q18 14 43 14q41 0 60 -34q14 -24 14 -83v-288q0 -54 -8 -72q-18 -43 -75 -43q-24 0 -46 16q-17 12 -25 31l-6 -37h-40 v700h68z"/>
<glyph glyph-name="c" horiz-adv-x="245" unicode="c" d="M225 196v-78q0 -48 -8 -72q-21 -56 -91 -56q-65 0 -89 54q-12 24 -12 79v261q0 65 13 89q26 49 86 49q66 0 88 -50q11 -24 11 -98v-59h-68v96q0 23 -5 33q-8 14 -26 14t-26 -14q-5 -8 -5 -33v-305q0 -25 6 -37q8 -15 27 -15q18 0 26 15q5 10 5 38v89h68z"/>
<glyph glyph-name="d" horiz-adv-x="255" unicode="d" d="M93 117q0 -44 7 -56q7 -11 21 -11q20 0 28 14q8 15 8 42v267q0 38 -7 54q-10 21 -31 21q-16 0 -22 -14q-4 -10 -4 -33v-284zM157 700h68v-700h-66v21q-9 -11 -20 -20q-16 -11 -39 -11q-46 0 -65 41q-10 23 -10 64v320q0 40 11 61q18 34 55 34q28 0 47 -13q11 -7 17 -16h2 v219z"/>
<glyph glyph-name="e" horiz-adv-x="246" unicode="e" d="M153 300v114q0 25 -7 34q-7 10 -23 10q-15 0 -23 -10q-7 -9 -7 -34v-114h60zM221 191v-89q0 -52 -18 -78q-23 -34 -76 -34q-51 0 -78 33q-24 29 -24 92v283v7q0 58 23 85q27 32 75 32t75 -32q23 -27 23 -85v-7v-156h-128v-137q0 -30 6 -38q8 -13 26 -13t26 13q6 12 6 39 v85h64z"/>
<glyph glyph-name="f" horiz-adv-x="166" unicode="f" d="M117 0h-68v454h-39v58h38v110q0 32 13 51q19 27 65 27h30v-64h-9q-18 0 -25 -10q-5 -9 -5 -34v-80h38v-58h-38v-454z"/>
<glyph glyph-name="g" horiz-adv-x="255" unicode="g" d="M93 124q0 -27 4 -40q6 -21 26 -21q19 0 28 17q6 12 6 36v282q0 28 -6 43q-9 19 -27 19q-19 0 -26 -17q-5 -11 -5 -37v-282zM25 -27h68v-21q0 -21 6 -33q7 -15 26 -15q18 0 26 13q6 11 6 36v86q-10 -15 -28 -26q-18 -12 -39 -12q-32 0 -51 34q-14 26 -14 69v305v15 q0 58 27 82q19 16 40 16q24 0 43 -18q10 -9 18 -23h2v28h70v-508q0 -88 -16 -113q-24 -38 -80 -38q-58 0 -84 34q-20 28 -20 89z"/>
<glyph glyph-name="h" horiz-adv-x="260" unicode="h" d="M230 0h-68v389q0 38 -5 52q-6 16 -24 16q-20 0 -30 -21q-5 -11 -5 -32v-404h-68v700h68v-213q9 12 23 21q23 14 47 14q34 0 50 -33q12 -24 12 -83v-406z"/>
<glyph glyph-name="i" horiz-adv-x="128" unicode="i" d="M98 600h-68v100h68v-100zM98 0h-68v512h68v-512z"/>
<glyph glyph-name="j" horiz-adv-x="128" unicode="j" d="M98 600h-68v100h68v-100zM-15 -150v60h24q21 0 21 35v567h68v-552v-14q0 -48 -11 -67q-16 -29 -57 -29h-45z"/>
<glyph glyph-name="k" horiz-adv-x="235" unicode="k" d="M227 0h-69l-58 219h-2v-219h-68v700h68v-387h3l61 199h70l-77 -251z"/>
<glyph glyph-name="l" horiz-adv-x="128" unicode="l" d="M98 0h-68v700h68v-700z"/>
<glyph glyph-name="m" horiz-adv-x="390" unicode="m" d="M360 0h-68v385q0 42 -4 50q-6 17 -27 17q-19 0 -27 -17q-5 -11 -5 -47v-388h-68v385q0 38 -3 47q-6 20 -26 20q-15 0 -25 -15q-9 -13 -9 -38v-399h-68v512h63l9 -27q8 14 21 23q18 14 42 14q23 0 39 -15q9 -7 20 -24q13 18 30 27q19 12 43 12q30 0 48 -25q15 -21 15 -66 v-431z"/>
<glyph glyph-name="n" horiz-adv-x="260" unicode="n" d="M230 0h-68v391q0 33 -4 45q-6 18 -26 18t-28 -18q-6 -12 -6 -34v-402h-68v512h63l1 -33q10 18 25 28q22 15 48 15q32 0 49 -26q14 -23 14 -92v-404z"/>
<glyph glyph-name="o" horiz-adv-x="254" unicode="o" d="M229 399v-272v-16q0 -55 -17 -81q-27 -40 -85 -40t-85 40q-17 26 -17 81v16v272v12q0 47 17 71q26 40 85 40t85 -40q17 -24 17 -71v-12zM161 413q0 18 -5 29q-9 16 -29 16t-29 -16q-5 -11 -5 -29v-314q0 -18 5 -29q9 -16 29 -16t29 16q5 11 5 29v314z"/>
<glyph glyph-name="p" horiz-adv-x="255" unicode="p" d="M162 410q0 26 -5 36q-6 14 -22 14q-20 0 -30 -18q-7 -12 -7 -38v-290q0 -27 6 -45q10 -28 32 -28q18 0 22 16q4 20 4 50v303zM98 -150h-68v662h60l8 -23q6 10 20 21q18 12 39 12q48 0 65 -43q8 -22 8 -72v-307q0 -62 -13 -87q-17 -34 -56 -34q-29 0 -46 16q-12 11 -17 25 v-170z"/>
<glyph glyph-name="q" horiz-adv-x="251" unicode="q" d="M93 399v-294q0 -30 5 -46q6 -18 21 -18q18 0 27 21q7 15 7 52v278q0 29 -6 45q-8 23 -28 23q-15 0 -21 -12q-5 -11 -5 -49zM25 403v16q0 37 11 60q20 43 66 43q27 0 46 -15q12 -9 23 -29l9 34h41v-662h-68v170q-5 -15 -17 -25q-17 -16 -42 -16q-36 0 -55 30 q-14 24 -14 87v307z"/>
<glyph glyph-name="r" horiz-adv-x="190" unicode="r" d="M98 0h-68v512h68v-37h2q4 20 20 33q17 14 40 14h22v-78h-28q-30 0 -43 -18q-13 -17 -13 -60v-366z"/>
<glyph glyph-name="s" horiz-adv-x="234" unicode="s" d="M15 186h68v-82q0 -25 7 -37q9 -13 28 -13q20 0 27 16q6 12 6 44q0 65 -17 87l-65 84q-26 36 -34 52q-17 35 -17 75q0 28 11 54q9 21 27 35q28 21 65 21q43 0 68 -28q27 -29 27 -101v-37h-62v58q0 23 -9 34q-10 10 -25 10q-17 0 -26 -13q-8 -13 -8 -34q0 -37 24 -68 l71 -90q38 -48 38 -126q0 -56 -15 -86q-14 -27 -36 -39q-21 -12 -53 -12q-22 0 -44 9q-20 9 -36 34q-20 32 -20 88v65z"/>
<glyph glyph-name="t" horiz-adv-x="172" unicode="t" d="M162 0h-35q-33 0 -47 8q-18 10 -23 32q-5 20 -5 42v372h-42v58h42v188h68v-188h42v-58h-42v-361v-8q0 -27 15 -27h27v-58z"/>
<glyph glyph-name="u" horiz-adv-x="260" unicode="u" d="M30 512h68v-387q0 -42 3 -52q5 -21 26 -21t29 17q6 12 6 32v411h68v-512h-63l-1 28q-10 -13 -25 -25q-19 -13 -41 -13q-33 0 -51 25q-19 27 -19 93v404z"/>
<glyph glyph-name="v" horiz-adv-x="220" unicode="v" d="M150 0h-81l-62 512h68l31 -338l2 -46h3l2 46l32 338h68z"/>
<glyph glyph-name="w" horiz-adv-x="316" unicode="w" d="M255 0h-71l-26 312l-26 -312h-71l-54 512h68l24 -321l2 -45l2 -1l24 367h62l24 -367l2 1l2 45l24 321h68z"/>
<glyph glyph-name="x" horiz-adv-x="212" unicode="x" d="M106 357l26 155h68l-60 -236l68 -276h-68l-34 180l-34 -180h-68l68 276l-60 236h68z"/>
<glyph glyph-name="y" horiz-adv-x="220" unicode="y" d="M23 -147v61q11 -3 31 -3q26 0 34 15q3 6 3 15q0 5 -6 47l-75 524h68l33 -361h3l28 361h68l-61 -574q-4 -45 -21 -66q-21 -26 -59 -26q-26 0 -46 7z"/>
<glyph glyph-name="z" horiz-adv-x="197" unicode="z" d="M182 0h-170v86l110 368h-100v58h160v-90l-110 -364h110v-58z"/>
<glyph glyph-name="braceleft" horiz-adv-x="260" unicode="{" d="M30 254v62q33 3 48.5 34.5t15.5 102.5v108q0 163 136 169v-52q-56 -16 -56 -97v-128q0 -60 -20 -106.5t-61 -59.5v-4q41 -13 61 -59.5t20 -106.5v-128q0 -81 56 -97v-52q-136 6 -136 169v108q0 71 -15.5 102.5t-48.5 34.5z"/>
<glyph glyph-name="bar" horiz-adv-x="130" unicode="|" d="M35 0v700h60v-700h-60z"/>
<glyph glyph-name="braceright" horiz-adv-x="260" unicode="}" d="M230 316v-62q-33 -3 -48.5 -34.5t-15.5 -102.5v-108q0 -163 -136 -169v52q56 16 56 97v128q0 60 20 106.5t61 59.5v4q-41 13 -61 59.5t-20 106.5v128q0 81 -56 97v52q136 -6 136 -169v-108q0 -71 15.5 -102.5t48.5 -34.5z"/>
<glyph glyph-name="asciitilde" horiz-adv-x="338" unicode="~" d="M19 351l-9 67q22 34 52 53q23 14 49 14q19 0 41 -18l61 -45q14 -11 32 -11q5 0 8 1q17 4 41 35l16 22l18 -57q-16 -26 -42 -47q-24 -20 -40 -20q-20 0 -33 6q-5 2 -30 19l-53 37q-13 10 -31 11h-4q-19 0 -38 -16q-20 -17 -38 -51z"/>
<glyph glyph-name="sterling" horiz-adv-x="314" unicode="£" d="M304 0h-274v74h39q25 60 26 131v13q0 75 -14 123h-66v70h55q-15 102 -15 152q0 83 36 122q35 37 85 37q59 0 93 -39q30 -34 30 -106v-26h-78v38q0 31 -9 43q-11 16 -35 16q-22 0 -33 -19q-11 -18 -11 -63q0 -69 15 -155h110v-70h-99q13 -51 13 -126q0 -80 -25 -141h157 v-74z"/>
<glyph glyph-name="currency" horiz-adv-x="326" unicode="¤" d="M301 183l-43 -43l-44 44q-25 -13 -50 -13q-27 0 -51 14l-45 -45l-43 43l45 45q-13 26 -13 52q0 22 13 48l-45 45l43 43l44 -44q25 14 53 14q22 0 50 -13l43 43l43 -43l-43 -43q14 -24 14 -53q0 -25 -14 -51zM111 279q0 -22 15.5 -38t37.5 -16t38 15.5t16 38.5 q0 22 -16 37.5t-38 15.5t-37.5 -15.5t-15.5 -37.5z"/>
<glyph glyph-name="section" horiz-adv-x="274" unicode="§" d="M111 283l35 -49q21 33 25 44q8 19 8 42q0 30 -10 47l-28 42q-23 -15 -34 -32q-12 -18 -12 -48q0 -23 16 -46zM188 179l14 -22q31 -50 31 -113q0 -41 -16 -71q-14 -26 -35 -37q-21 -12 -52 -12q-23 0 -44 10q-22 10 -36 32q-20 32 -20 89v50h70v-61q0 -30 6 -40t23 -10 q21 0 28 13q6 11 6 34v8q0 41 -19 67l-78 103q-20 26 -29 52q-12 33 -12 59q0 35 10 59q7 21 22 37q18 19 41 30l-17 24q-14 20 -28 48q-13 30 -13 63q0 34 7 52q9 25 24 40q25 27 70 27q44 0 68 -28q27 -31 27 -101v-37h-70v54q0 24 -6 33t-21 9q-14 0 -20 -8 q-9 -10 -9 -32q0 -38 23 -69l80 -107q36 -48 36 -110q0 -42 -21 -81q-16 -30 -40 -54z"/>
<glyph glyph-name="dieresis" horiz-adv-x="215" unicode="¨" d="M82 614h-68v86h68v-86zM200 614h-68v86h68v-86z"/>
<glyph glyph-name="copyright" horiz-adv-x="432" unicode="©" d="M301 291v-81q0 -49 -20 -76q-24 -32 -64 -32q-38 0 -63 33q-22 30 -22 89v264q0 50 22 79q24 31 63 31q35 0 59 -29t24 -88v-53h-56v72q0 20 -7 31t-21 11q-13 0 -20 -9q-8 -12 -8 -36v-294v-6q0 -17 7 -27q9 -12 23 -12q15 0 22 12q5 10 5 30v91h56zM86 550v-400 q0 -41 12 -66q15 -30 49 -30h138q35 0 49 30q12 26 12 66v400q0 41 -12 65q-16 31 -52 31h-133q-34 0 -51 -31q-12 -21 -12 -65zM289 0h-146q-63 0 -92 59q-19 38 -19 112v358q0 74 19 112q29 59 92 59h146q61 0 93 -59q18 -34 18 -96v-16v-358q0 -77 -18 -112 q-30 -59 -93 -59z"/>
<glyph glyph-name="guillemotleft" horiz-adv-x="327" unicode="«" d="M317 0h-57l-104 256l104 256h57l-87 -256zM171 0h-57l-104 256l104 256h57l-87 -256z"/>
<glyph glyph-name="logicalnot" horiz-adv-x="330" unicode="¬" d="M330 391v-195h-60v135h-270v60h330z"/>
<glyph glyph-name="registered" horiz-adv-x="432" unicode="®" d="M86 550v-400q0 -41 12 -66q15 -30 49 -30h138q34 0 49 30q12 25 12 66v400q0 44 -12 65q-17 31 -52 31h-133q-34 0 -51 -31q-12 -21 -12 -65zM289 0h-146q-63 0 -92 59q-19 38 -19 112v358q0 74 19 112q29 59 92 59h146q61 0 93 -59q18 -34 18 -96v-16v-358 q0 -77 -18 -112q-30 -59 -93 -59zM191 384h24q13 0 20 7q11 11 11 31v73q0 21 -5 29q-7 11 -20 11h-30v-151zM314 109h-63q-9 20 -9 57v123q0 20 -9 31q-7 8 -20 8h-22v-219h-56v482h103q33 0 50 -31q14 -24 14 -61v-62q0 -35 -16 -58q-11 -15 -26 -19v-4q18 -11 21 -14 q17 -17 17 -61v-104v-12q0 -25 2.5 -34.5t13.5 -16.5v-5z"/>
<glyph glyph-name="degree" horiz-adv-x="260" unicode="°" d="M74 600q0 -22 17 -39t39 -17t39 17t17 39t-17 39t-39 17t-39 -17t-17 -39zM30 600q0 42 29 71t71 29t71 -29t29 -71t-29 -71t-71 -29t-71 29t-29 71z"/>
<glyph glyph-name="plusminus" d="M40 163v60h330v-60h-330zM235 293h-60v135h-135v60h135v135h60v-135h135v-60h-135v-135z" unicode="±"/>
<glyph glyph-name="acute" horiz-adv-x="215" unicode="´" d="M55 554l-19 18l103 152l58 -56z"/>
<glyph glyph-name="mu" horiz-adv-x="256" unicode="µ" d="M98 -150h-68v662h68v-381q0 -37 5 -54q6 -18 22 -18q20 0 27 26q6 21 6 50v377h68v-512h-54l-8 32q-5 -16 -17 -27t-24 -11q-18 0 -25 17v-161z"/>
<glyph glyph-name="mu" horiz-adv-x="256" unicode="μ" d="M98 -150h-68v662h68v-381q0 -37 5 -54q6 -18 22 -18q20 0 27 26q6 21 6 50v377h68v-512h-54l-8 32q-5 -16 -17 -27t-24 -11q-18 0 -25 17v-161z"/>
<glyph glyph-name="paragraph" horiz-adv-x="370" unicode="¶" d="M123 332v308q-1 0 -3.5 0.5t-3.5 0.5q-26 0 -26 -43v-221q0 -46 26 -46q1 0 3.5 0.5t3.5 0.5zM315 -150h-68v790h-56v-790h-68v422h-23q-30 0 -52 26q-23 28 -23 94v179q0 49 7 73q19 56 84 56h249v-60h-50v-790z"/>
<glyph glyph-name="guillemotright" horiz-adv-x="327" unicode="»" d="M10 0l87 256l-87 256h57l104 -256l-104 -256h-57zM156 0l87 256l-87 256h57l104 -256l-104 -256h-57z"/>
<glyph glyph-name="divide" d="M173 472v100h64v-100h-64zM173 144v100h64v-100h-64zM40 331v60h330v-60h-330z" unicode="÷"/>
<glyph glyph-name="afii10023" horiz-adv-x="251" unicode="Ё" d="M35 0v700h206v-74h-128v-219h82v-74h-82v-259h128v-74h-206zM158 778v82h71v-82h-71zM44 778v82h71v-82h-71z"/>
<glyph glyph-name="afii10051" horiz-adv-x="360" unicode="Ђ" d="M175 0h-78v626h-92v74h262v-74h-92v-221q13 11 26 18q30 15 54 15q39 0 58 -33q17 -27 17 -83v-322h-78v295q0 39 -6 51q-9 17 -32 17q-24 0 -39 -19v-344z"/>
<glyph glyph-name="afii10052" horiz-adv-x="237" unicode="Ѓ" d="M86 734l-11 24l149 109l35 -74zM113 0h-78v700h198v-74h-120v-626z"/>
<glyph glyph-name="afii10053" horiz-adv-x="302" unicode="Є" d="M151 64q23 0 33 18q8 16 8 59v123h78v-118q0 -76 -23 -110q-30 -46 -96 -46q-67 0 -97 46q-22 34 -22 117v398q0 80 26 115q32 44 92 44q63 0 93 -44q25 -35 25 -110v-15v-77h-78v105q0 40 -10 53q-10 14 -30 14q-21 0 -30 -14q-10 -14 -10 -53v-167h112v-74h-112v-187 q0 -44 8 -59q10 -18 33 -18z"/>
<glyph glyph-name="afii10054" horiz-adv-x="284" unicode="Ѕ" d="M25 233h70v-104q0 -27 4 -38q8 -27 43 -27q21 0 29 11q10 14 10 51v37q0 58 -32 110l-66 104q-26 42 -38 75q-20 55 -20 106v18q0 56 28 93q32 41 88 41q63 0 92 -43q22 -32 22 -99v-7v-71h-70v82q0 35 -11 50q-10 14 -32 14q-19 0 -29 -16q-10 -14 -10 -37v-10 q0 -72 35 -126l65 -101q56 -87 56 -190v-12q0 -80 -26 -116q-28 -38 -88 -38q-54 0 -85 30q-35 34 -35 126v87z"/>
<glyph glyph-name="afii10055" horiz-adv-x="148" unicode="І" d="M35 0v700h78v-700h-78z"/>
<glyph glyph-name="afii10056" horiz-adv-x="205" unicode="Ї" d="M124 778v82h71v-82h-71zM10 778v82h71v-82h-71zM63 0v700h78v-700h-78z"/>
<glyph glyph-name="afii10057" horiz-adv-x="281" unicode="Ј" d="M246 700v-546v-15q0 -76 -24 -108q-29 -41 -83 -41q-61 0 -93 41q-26 34 -26 103v20v133h70v-153v-11q0 -29 8 -42q11 -17 32 -17t31 17q7 13 7 53v566h78z"/>
<glyph glyph-name="afii10058" horiz-adv-x="459" unicode="Љ" d="M271 328v-254h28q29 0 42 13q14 14 14 52v95q0 54 -14 73q-15 21 -49 21h-21zM271 0h-78v626h-50v-167q0 -128 -12 -245q-10 -89 -27 -135q-29 -79 -86 -79h-10v74q19 12 30 34q18 37 29 163q8 93 8 216v213h118h78v-298h32q51 0 87 -32q44 -40 44 -134v-83 q0 -85 -30 -120q-28 -33 -84 -33h-49z"/>
<glyph glyph-name="afii10059" horiz-adv-x="464" unicode="Њ" d="M276 341v-267h28q29 0 42 13q14 14 14 52v108q0 54 -14 73q-15 21 -49 21h-21zM35 0v700h78v-285h85v285h78v-285h32q51 0 87 -32q44 -40 44 -134v-96q0 -85 -30 -120q-28 -33 -84 -33h-127v341h-85v-341h-78z"/>
<glyph glyph-name="afii10060" horiz-adv-x="351" unicode="Ћ" d="M175 0h-78v626h-92v74h262v-74h-92v-222q12 11 27 19q30 15 54 15q39 0 58 -33q17 -27 17 -83v-209v-18q0 -62 -22 -85q-19 -20 -50 -20q-6 0 -28 2q-14 1 -26 5v67q9 -3 22 -3q12 0 15 3q11 9 11 47v8v176q0 39 -6 51q-9 17 -32 17q-25 0 -40 -20v-343z"/>
<glyph glyph-name="afii10061" horiz-adv-x="299" unicode="Ќ" d="M106 734l-11 24l149 109l35 -74zM204 0q-13 25 -13 52v208v7q0 35 -13 49q-14 14 -37 14h-28v-330h-78v700h78v-296h26q17 0 27.5 13t10.5 31v171q0 55 30 72q16 9 51 9h25v-80l-15 -1q-17 -2 -17 -28v-152q0 -43 -38 -65v-4q26 -8 42 -31q14 -24 14 -69v-9v-177 q0 -29 5 -49q6 -17 15 -32v-3h-85z"/>
<glyph glyph-name="afii10062" horiz-adv-x="298" unicode="Ў" d="M240 820q0 -44 -27 -69q-26 -24 -65 -24q-40 0 -65 24q-27 25 -27 69h60q0 -19 4 -26q8 -17 28 -17t28 17q4 7 4 26h60zM15 0v74q16 -5 35 -5q36 0 56 24q13 17 13 40q0 14 -4 32l-105 535h85l55 -357l5 -47h2l2 47l46 357h83l-91 -569q-12 -78 -47 -109q-30 -27 -75 -27 q-33 0 -60 5z"/>
<glyph glyph-name="afii10145" horiz-adv-x="310" unicode="Џ" d="M275 0h-85v-130h-70v130h-85v700h78v-626h84v626h78v-700z"/>
<glyph glyph-name="afii10017" horiz-adv-x="290" unicode="А" d="M108 203h74l-36 346l-2 1zM283 0h-80l-14 129h-88l-14 -129h-80l88 700h100z"/>
<glyph glyph-name="afii10018" horiz-adv-x="297" unicode="Б" d="M113 74h33q27 0 38 13t11 53v102q0 45 -7 62q-11 28 -43 28h-32v-258zM35 0v700h222v-74h-144v-220h33q85 0 114 -72q16 -39 16 -113v-64q0 -83 -27 -119q-29 -38 -80 -38h-134z"/>
<glyph glyph-name="afii10019" horiz-adv-x="295" unicode="В" d="M113 406h31q26 0 39 14q12 14 12 55v84q0 37 -13 51q-16 16 -46 16h-23v-220zM113 74h33q30 0 42 17q9 14 9 48v104q0 50 -10 67q-15 24 -51 24h-23v-260zM35 0v700h120q59 0 90 -38q27 -33 27 -113v-70q0 -51 -14 -76q-16 -29 -50 -36l-1 -3q43 -13 59 -52q9 -22 9 -76 v-100q0 -63 -17 -91q-29 -45 -84 -45h-139z"/>
<glyph glyph-name="afii10020" horiz-adv-x="237" unicode="Г" d="M113 0h-78v700h198v-74h-120v-626z"/>
<glyph glyph-name="afii10021" horiz-adv-x="352" unicode="Д" d="M121 74h101v552h-54v-152q0 -97 -14 -211q-12 -100 -33 -189zM348 -130h-70v130h-204v-130h-70v204h39q30 107 43 217q12 96 12 215v30l1 164h201v-626h48v-204z"/>
<glyph glyph-name="afii10022" horiz-adv-x="251" unicode="Е" d="M35 0v700h206v-74h-128v-219h82v-74h-82v-259h128v-74h-206z"/>
<glyph glyph-name="afii10024" horiz-adv-x="453" unicode="Ж" d="M358 0q-13 25 -13 52v208v16q0 26 -13 40t-37 14h-28v-330h-81v330h-28q-24 0 -37 -14t-13 -40v-16v-208q0 -27 -13 -52h-85v3q9 15 15 32q5 20 5 49v184q0 56 14 75t42 27v4q-38 22 -38 65v152q0 26 -17 28l-15 1v80h25q35 0 51 -9q30 -18 30 -72v-171q0 -18 10.5 -31 t27.5 -13h26v296h81v-296h26q17 0 27.5 13t10.5 31v171q0 54 30 72q16 9 51 9h25v-80l-15 -1q-17 -1 -17 -28v-152q0 -43 -38 -65v-4q28 -8 42 -27t14 -75v-184q0 -29 5 -49q6 -17 15 -32v-3h-85z"/>
<glyph glyph-name="afii10025" horiz-adv-x="290" unicode="З" d="M25 272h78v-140q0 -37 6 -49q9 -19 36 -19q26 0 35 19q7 16 7 49v119q0 46 -9 60q-14 22 -51 22h-6l-54 -3v75h64q35 0 45 27q7 19 7 50v102q0 22 -7 35q-10 17 -32 17t-31 -15q-8 -8 -8 -43v-112h-78v99q0 74 28 107q32 38 89 38q56 0 87 -39q30 -36 30 -106v-79 q0 -49 -14 -74q-14 -26 -49 -38v-3q28 -9 45 -32q22 -29 22 -86v-95q0 -85 -21 -119q-28 -49 -99 -49q-63 0 -95 45q-25 36 -25 112v125z"/>
<glyph glyph-name="afii10026" horiz-adv-x="310" unicode="И" d="M275 0h-78v354l5 49l-89 -269v-134h-78v700h78v-332l-5 -51l89 269v114h78v-700z"/>
<glyph glyph-name="afii10027" horiz-adv-x="310" unicode="Й" d="M247 820q0 -44 -27 -69q-25 -24 -65 -24q-39 0 -65 24q-27 25 -27 69h60q0 -18 4 -26q6 -17 28 -17t28 17q4 8 4 26h60zM275 0h-78v354l5 49l-89 -269v-134h-78v700h78v-332l-5 -51l89 269v114h78v-700z"/>
<glyph glyph-name="afii10028" horiz-adv-x="299" unicode="К" d="M204 0q-13 25 -13 52v208v7q0 35 -13 49q-14 14 -37 14h-28v-330h-78v700h78v-296h26q17 0 27.5 13t10.5 31v171q0 55 30 72q16 9 51 9h25v-80l-15 -1q-17 -2 -17 -28v-152q0 -43 -38 -65v-4q26 -8 42 -31q14 -24 14 -69v-9v-177q0 -29 5 -49q6 -17 15 -32v-3h-85z"/>
<glyph glyph-name="afii10029" horiz-adv-x="306" unicode="Л" d="M271 0h-78v626h-50v-167q0 -128 -12 -245q-10 -89 -27 -135q-29 -79 -86 -79h-10v74q19 12 30 34q18 37 29 163q8 93 8 216v213h196v-700z"/>
<glyph glyph-name="afii10030" horiz-adv-x="432" unicode="М" d="M245 0h-58l-78 567h-3l7 -93v-474h-78v700h120l60 -450h2l60 450h120v-700h-78v474l7 93h-3z"/>
<glyph glyph-name="afii10031" horiz-adv-x="310" unicode="Н" d="M197 341h-84v-341h-78v700h78v-285h84v285h78v-700h-78v341z"/>
<glyph glyph-name="afii10032" horiz-adv-x="302" unicode="О" d="M110 563v-426q0 -43 6 -54q10 -19 35 -19t35 19q6 11 6 54v426q0 43 -6 54q-10 19 -35 19t-35 -19q-6 -11 -6 -54zM151 -10q-61 0 -93 41q-26 34 -26 103v20v392v20q0 69 26 103q32 41 93 41t93 -41q26 -34 26 -103v-20v-392v-20q0 -69 -26 -103q-32 -41 -93 -41z"/>
<glyph glyph-name="afii10033" horiz-adv-x="310" unicode="П" d="M275 0h-78v626h-84v-626h-78v700h240v-700z"/>
<glyph glyph-name="afii10034" horiz-adv-x="295" unicode="Р" d="M113 389h36h6q29 0 37 20q5 10 5 48v111q0 31 -12 45q-11 13 -37 13h-35v-237zM113 0h-78v700h122q62 0 93 -42q25 -34 25 -97v-119q0 -61 -25 -95q-24 -34 -72 -36h-8q-29 0 -57 4v-315z"/>
<glyph glyph-name="afii10035" horiz-adv-x="295" unicode="С" d="M151 64q24 0 33 18q8 14 8 67v115h78v-118q0 -76 -23 -110q-31 -46 -95 -46q-61 0 -94 47q-26 37 -26 122v8v384q0 80 26 115q32 44 98 44q58 0 88 -41q26 -35 26 -109v-19v-77h-74v105q0 39 -11 53q-12 14 -32 14t-32 -14q-11 -14 -11 -53v-420q0 -53 8 -67 q9 -18 33 -18z"/>
<glyph glyph-name="afii10036" horiz-adv-x="272" unicode="Т" d="M175 0h-78v626h-92v74h262v-74h-92v-626z"/>
<glyph glyph-name="afii10037" horiz-adv-x="298" unicode="У" d="M15 0v74q16 -5 35 -5q36 0 56 24q13 17 13 40q0 14 -4 32l-105 535h85l55 -357l5 -47h2l2 47l46 357h83l-91 -569q-12 -78 -47 -109q-30 -27 -75 -27q-33 0 -60 5z"/>
<glyph glyph-name="afii10038" horiz-adv-x="438" unicode="Ф" d="M180 151v402h-12q-34 0 -52 -24q-15 -18 -15 -63v-14v-192q0 -49 12 -75q18 -34 52 -34h15zM258 151h15q34 0 52 34q12 22 12 79v188v14q0 44 -15 63q-19 24 -52 24h-12v-402zM258 0h-78v77h-15q-69 0 -109 54q-33 44 -33 126v16v164q0 109 42 150q42 40 101 40h14v73h78 v-73h14q59 0 101 -40q42 -41 42 -150v-164q0 -56 -6.5 -85.5t-26.5 -56.5q-42 -54 -109 -54h-15v-77z"/>
<glyph glyph-name="afii10039" horiz-adv-x="312" unicode="Х" d="M307 0h-86l-60 212l-4 28h-2l-4 -28l-60 -212h-86l112 368l-101 332h86l51 -197l2 -22h2l2 22l51 197h86l-101 -331z"/>
<glyph glyph-name="afii10040" horiz-adv-x="324" unicode="Ц" d="M319 -130h-70v130h-214v700h78v-626h78v626h78v-626h50v-204z"/>
<glyph glyph-name="afii10041" horiz-adv-x="298" unicode="Ч" d="M263 0h-78v304h-57q-61 0 -84 32q-19 25 -19 99v265h78v-260q0 -40 5 -48q8 -14 32 -14h45v322h78v-700z"/>
<glyph glyph-name="afii10042" horiz-adv-x="452" unicode="Ш" d="M417 0h-382v700h78v-626h74v626h78v-626h74v626h78v-700z"/>
<glyph glyph-name="afii10043" horiz-adv-x="474" unicode="Щ" d="M470 -130h-70v129h-365v701h78v-627h74v627h78v-627h74v627h78v-627h53v-203z"/>
<glyph glyph-name="afii10044" horiz-adv-x="362" unicode="Ъ" d="M174 328v-254h30q31 0 44 17q10 14 10 54v89q0 55 -14 73q-15 21 -49 21h-21zM96 0v626h-91v74h169v-298h32q51 0 87 -32q44 -40 44 -134v-83q0 -83 -30 -120q-27 -33 -84 -33h-127z"/>
<glyph glyph-name="afii10045" horiz-adv-x="413" unicode="Ы" d="M113 328v-254h28q32 0 45 17q11 15 11 56v87q0 55 -14 73q-15 21 -49 21h-21zM35 0v700h78v-298h32q51 0 87 -32q44 -40 44 -134v-83q0 -82 -31 -120q-27 -33 -83 -33h-127zM300 0v700h78v-700h-78z"/>
<glyph glyph-name="afii10046" horiz-adv-x="301" unicode="Ь" d="M113 328v-254h28q29 0 42 13q14 14 14 52v95q0 54 -14 73q-15 21 -49 21h-21zM35 0v700h78v-298h32q51 0 87 -32q44 -40 44 -134v-83q0 -85 -30 -120q-28 -33 -84 -33h-127z"/>
<glyph glyph-name="afii10047" horiz-adv-x="295" unicode="Э" d="M144 64q23 0 33 18q8 16 8 59v187h-112v74h112v167q0 39 -10 53q-9 14 -30 14q-19 0 -30 -14q-10 -13 -10 -53v-105h-78v77v15q0 75 25 110q30 44 93 44q60 0 92 -44q26 -35 26 -115v-398q0 -83 -22 -117q-30 -46 -97 -46q-66 0 -96 46q-23 34 -23 110v118h78v-123 q0 -44 8 -59q10 -18 33 -18z"/>
<glyph glyph-name="afii10048" horiz-adv-x="435" unicode="Ю" d="M243 566v-432q0 -39 6 -51q9 -19 35 -19t35 19q6 12 6 51v432q0 39 -6 51q-9 19 -35 19t-35 -19q-6 -12 -6 -51zM165 411v135v20q0 69 26 103q32 41 93 41t93 -41q26 -34 26 -103v-20v-392v-20q0 -69 -26 -103q-32 -41 -93 -41t-93 41q-26 34 -26 103v20v183h-52v-337 h-78v700h78v-289h52z"/>
<glyph glyph-name="afii10049" horiz-adv-x="297" unicode="Я" d="M184 396v230h-18q-34 0 -51 -16q-15 -15 -15 -44v-6v-80q0 -52 16 -68q17 -16 53 -16h15zM10 0v5q15 17 18.5 35.5t3.5 58.5v150q0 61 27 89q14 14 36 21v4q-32 5 -49 29q-21 28 -21 92v7v76q0 60 22 89q33 44 117 44h98v-700h-78v322h-20q-32 0 -45 -17q-9 -12 -9 -57 v-165q0 -55 -14 -83h-86z"/>
<glyph glyph-name="afii10065" horiz-adv-x="238" unicode="а" d="M145 256q-47 -39 -56 -63q-6 -18 -6 -50v-42q0 -25 4 -37q5 -13 18 -13q19 0 29 17q11 18 11 43v145zM213 0h-54l-9 31q-11 -18 -27 -29q-17 -12 -42 -12q-34 0 -50 25q-16 24 -16 64v75q0 32 7.5 53t33.5 48q32 32 89 72v93q0 17 -5 27q-7 13 -25 13t-25 -13 q-5 -10 -5 -27v-81h-68v70q0 55 21 81q26 32 78 32q57 0 78 -32q19 -25 19 -82v-408z"/>
<glyph glyph-name="afii10066" horiz-adv-x="254" unicode="б" d="M161 413q0 18 -5 29q-9 16 -29 16t-29 -16q-5 -11 -5 -29v-314q0 -18 5 -29q9 -16 29 -16t29 16q5 11 5 29v314zM62 460h2q3 28 21.5 45t44.5 17q55 0 82 -40q17 -26 17 -72v-25v-258v-25q0 -47 -17 -72q-27 -40 -85 -40t-85 40q-17 25 -17 72v25v364q0 49 9 80 q15 48 55 65l44 18q12 5 16.5 7.5t10 10.5t5.5 21v7h58v-21q0 -64 -56 -84l-56 -21q-49 -18 -49 -77v-37z"/>
<glyph glyph-name="afii10067" horiz-adv-x="248" unicode="в" d="M98 307h22q21 0 29 10t8 29v66q0 22 -9 32q-10 10 -27 10h-23v-147zM98 58h22q21 0 31 11q9 10 9 43v80q0 29 -10 42q-12 15 -33 15h-4h-15v-191zM30 0v512h111q47 0 69 -40q14 -26 14 -63v-38q0 -42 -14 -66q-14 -21 -37 -28q29 -12 41 -33q14 -22 14 -71v-64 q0 -48 -17 -73q-24 -36 -87 -36h-94z"/>
<glyph glyph-name="afii10068" horiz-adv-x="204" unicode="г" d="M98 0h-68v512h164v-58h-96v-454z"/>
<glyph glyph-name="afii10069" horiz-adv-x="270" unicode="д" d="M164 58v398h-40v-146q0 -66 -8 -136q-6 -54 -23 -116h71zM5 58h28q16 47 26 114q11 88 11 215v125h162v-454h33v-168h-60v110h-140v-110h-60v168z"/>
<glyph glyph-name="afii10070" horiz-adv-x="246" unicode="е" d="M153 300v114q0 25 -7 34q-7 10 -23 10q-15 0 -23 -10q-7 -9 -7 -34v-114h60zM221 191v-89q0 -52 -18 -78q-23 -34 -76 -34q-51 0 -78 33q-24 29 -24 92v283v7q0 58 23 85q27 32 75 32t75 -32q23 -27 23 -85v-7v-156h-128v-137q0 -30 6 -38q8 -13 26 -13t26 13q6 12 6 39 v85h64z"/>
<glyph glyph-name="afii10072" horiz-adv-x="368" unicode="ж" d="M69 272q-16 5 -24 17q-10 14 -10 37v104v4.5v4.5t-0.5 3.5t-1 3.5t-2 2.5t-3.5 2t-5 0.5h-10v60h26h7q22 0 35 -8q19 -11 19 -34v-11v-124q0 -32 20 -32h30v210h68v-210h30q20 0 20 32v124q0 33 19 45q13 8 35 8h7h26v-60h-10q-12 0 -12 -17v-4v-104q0 -23 -10 -37 q-8 -12 -24 -17v-3q21 -10 29 -21q18 -21 18 -68v-133q0 -24 12 -44v-3h-72q-8 28 -8 50v133v5q0 35 -14 47q-11 9 -31 9h-15v-244h-68v244h-15q-20 0 -31 -9q-14 -12 -14 -47v-5v-133q0 -22 -8 -50h-72v3q12 20 12 44v133q0 47 18 68q8 11 29 21v3z"/>
<glyph glyph-name="afii10073" horiz-adv-x="239" unicode="з" d="M214 362q0 -33 -10 -58q-13 -25 -41 -34v-3q28 -13 42 -35q14 -24 14 -74v-54q0 -47 -17 -73q-26 -41 -85 -41q-48 0 -76 30q-26 28 -26 83v85h68v-77q0 -31 7 -43q8 -14 27 -14q21 0 28 14q6 10 6 43v57q0 32 -10 47q-13 20 -49 20h-32v58h42q47 0 47 50v74q0 20 -6 29 q-8 12 -25 12q-15 0 -25 -12q-6 -8 -6 -29v-82h-65v71q0 53 18 78q27 38 80 38q54 0 78 -39q16 -26 16 -77v-44z"/>
<glyph glyph-name="afii10074" horiz-adv-x="256" unicode="и" d="M226 0h-68v218l4 62l-64 -207v-73h-68v512h68v-222l-5 -53l65 207v68h68v-512z"/>
<glyph glyph-name="afii10075" horiz-adv-x="258" unicode="й" d="M167 700h61q-2 -56 -32 -86q-29 -29 -67 -29t-67 29q-29 30 -32 86h61q0 -25 4 -37q9 -26 35 -26q25 0 33 26q4 15 4 37zM227 0h-68v218l4 62l-64 -207v-73h-68v512h68v-222l-5 -53l65 207v68h68v-512z"/>
<glyph glyph-name="afii10076" horiz-adv-x="248" unicode="к" d="M226 180v-133q0 -24 12 -44v-3h-72q-8 28 -8 50v133v5q0 35 -14 47q-11 9 -31 9h-15v-244h-68v512h68v-210h30q20 0 20 32v114q0 37 16 51q14 12 45 12h26v-60h-10q-12 0 -12 -17v-4v-104q0 -20 -10 -37q-9 -13 -24 -17v-3q21 -10 29 -21q18 -21 18 -68z"/>
<glyph glyph-name="afii10077" horiz-adv-x="249" unicode="л" d="M219 0h-68v454h-37v-189q0 -167 -23 -214q-24 -51 -76 -51h-10v65h12q18 0 27 33q9 35 9 265v149h166v-512z"/>
<glyph glyph-name="afii10078" horiz-adv-x="344" unicode="м" d="M314 0h-60v340l2 38h-3l-64 -378h-34l-64 378h-3l2 -38v-340h-60v512h90l48 -304l2 -28h4l2 28l48 304h90v-512z"/>
<glyph glyph-name="afii10079" horiz-adv-x="256" unicode="н" d="M226 0h-68v244h-60v-244h-68v512h68v-210h60v210h68v-512z"/>
<glyph glyph-name="afii10080" horiz-adv-x="254" unicode="о" d="M229 399v-272v-16q0 -55 -17 -81q-27 -40 -85 -40t-85 40q-17 26 -17 81v16v272v12q0 47 17 71q26 40 85 40t85 -40q17 -24 17 -71v-12zM161 413q0 18 -5 29q-9 16 -29 16t-29 -16q-5 -11 -5 -29v-314q0 -18 5 -29q9 -16 29 -16t29 16q5 11 5 29v314z"/>
<glyph glyph-name="afii10081" horiz-adv-x="256" unicode="п" d="M226 0h-68v454h-60v-454h-68v512h196v-512z"/>
<glyph glyph-name="afii10082" horiz-adv-x="255" unicode="р" d="M162 410q0 26 -5 36q-6 14 -22 14q-20 0 -30 -18q-7 -12 -7 -38v-290q0 -27 6 -45q10 -28 32 -28q18 0 22 16q4 20 4 50v303zM98 -150h-68v662h60l8 -23q6 10 20 21q18 12 39 12q48 0 65 -43q8 -22 8 -72v-307q0 -62 -13 -87q-17 -34 -56 -34q-29 0 -46 16q-12 11 -17 25 v-170z"/>
<glyph glyph-name="afii10083" horiz-adv-x="245" unicode="с" d="M225 196v-78q0 -48 -8 -72q-21 -56 -91 -56q-65 0 -89 54q-12 24 -12 79v261q0 65 13 89q26 49 86 49q66 0 88 -50q11 -24 11 -98v-59h-68v96q0 23 -5 33q-8 14 -26 14t-26 -14q-5 -8 -5 -33v-305q0 -25 6 -37q8 -15 27 -15q18 0 26 15q5 10 5 38v89h68z"/>
<glyph glyph-name="afii10084" horiz-adv-x="228" unicode="т" d="M148 0h-68v454h-76v58h220v-58h-76v-454z"/>
<glyph glyph-name="afii10085" horiz-adv-x="220" unicode="у" d="M23 -147v61q11 -3 31 -3q26 0 34 15q3 6 3 15q0 5 -6 47l-75 524h68l33 -361h3l28 361h68l-61 -574q-4 -45 -21 -66q-21 -26 -59 -26q-26 0 -46 7z"/>
<glyph glyph-name="afii10086" horiz-adv-x="374" unicode="ф" d="M153 133v271q0 27 -11 40q-9 11 -27 11q-13 0 -18 -13q-4 -9 -4 -43v-279q0 -37 3 -45q4 -15 19 -15q25 0 33 25q5 15 5 48zM221 404v-271q0 -33 5 -48q8 -25 33 -25q15 0 19 15q3 8 3 45v279q0 34 -4 43q-5 13 -18 13q-18 0 -27 -11q-11 -13 -11 -40zM221 -150h-68v183 q-25 -43 -63 -43q-35 0 -52 33q-13 24 -13 67v333q0 54 18 77q18 22 45 22q16 0 34.5 -11t30.5 -32v183h68v-183q12 21 30.5 32t34.5 11q27 0 45 -22q18 -23 18 -77v-333q0 -48 -13 -70q-18 -30 -52 -30q-38 0 -63 43v-183z"/>
<glyph glyph-name="afii10087" horiz-adv-x="212" unicode="х" d="M106 357l26 155h68l-60 -236l68 -276h-68l-34 180l-34 -180h-68l68 276l-60 236h68z"/>
<glyph glyph-name="afii10088" horiz-adv-x="262" unicode="ц" d="M30 0v510h68v-452h60v453h68v-453h32v-168h-67l3 110h-164z"/>
<glyph glyph-name="afii10089" horiz-adv-x="246" unicode="ч" d="M216 0h-68v219h-70q-30 0 -46 28q-12 21 -12 58v9v198h68v-212q0 -14 5 -18.5t17 -4.5h38v235h68v-512z"/>
<glyph glyph-name="afii10090" horiz-adv-x="384" unicode="ш" d="M354 0h-324v512h68v-454h60v454h68v-454h60v454h68v-512z"/>
<glyph glyph-name="afii10091" horiz-adv-x="396" unicode="щ" d="M354 512v-454h38v-168h-58v110h-304v512h68v-454h60v454h68v-454h60v454h68z"/>
<glyph glyph-name="afii10092" horiz-adv-x="284" unicode="ъ" d="M136 56h20q22 0 31 11q9 10 9 42v70q0 36 -6 48q-10 20 -36 20h-18v-191zM68 0v454h-64v58h132v-209h29q52 0 77 -33q22 -29 22 -87v-74q0 -66 -31 -91q-21 -18 -65 -18h-100z"/>
<glyph glyph-name="afii10093" horiz-adv-x="344" unicode="ы" d="M98 56h20q22 0 31 11q9 10 9 42v70q0 36 -6 48q-10 20 -36 20h-18v-191zM30 0v512h68v-209h29q52 0 77 -33q22 -29 22 -87v-74q0 -66 -31 -91q-21 -18 -65 -18h-100zM314 0h-68v512h68v-512z"/>
<glyph glyph-name="afii10094" horiz-adv-x="246" unicode="ь" d="M98 56h20q22 0 31 11q9 10 9 42v70q0 36 -6 48q-10 20 -36 20h-18v-191zM30 0v512h68v-209h29q52 0 77 -33q22 -29 22 -87v-74q0 -66 -31 -91q-21 -18 -65 -18h-100z"/>
<glyph glyph-name="afii10095" horiz-adv-x="246" unicode="э" d="M221 128q0 -65 -10 -89q-21 -49 -89 -49q-64 0 -87 50q-12 26 -12 98v59h68v-96q0 -22 4 -31q7 -16 27 -16q21 0 27 16q4 11 4 32v134h-87v58h87v112q0 27 -5 37q-8 15 -26 15t-26 -15q-5 -10 -5 -37v-82h-68v70v11q0 37 9 61q21 56 90 56q66 0 88 -54q11 -29 11 -79 v-261z"/>
<glyph glyph-name="afii10096" horiz-adv-x="366" unicode="ю" d="M273 413q0 18 -5 29q-9 16 -29 16t-29 -16q-5 -11 -5 -29v-314q0 -18 5 -29q9 -16 29 -16t29 16q5 11 5 29v314zM98 302h39v83v25q0 47 17 72q28 40 85 40t85 -40q17 -25 17 -72v-25v-258v-25q0 -47 -17 -72q-28 -40 -85 -40t-85 40q-17 25 -17 72v25v117h-39v-244h-68 v512h68v-210z"/>
<glyph glyph-name="afii10097" horiz-adv-x="253" unicode="я" d="M155 291v163h-21q-31 0 -39 -19q-4 -8 -4 -33v-51q0 -32 8 -44q11 -16 38 -16h18zM223 0h-68v233h-15q-41 0 -41 -56v-121q0 -34 -10 -56h-74v2q8 13 11 27q5 20 5 51v85q0 42 9 61q9 21 33 32q-23 7 -36 27q-14 23 -14 69v57q0 49 23 74q25 27 90 27h87v-512z"/>
<glyph glyph-name="afii10071" horiz-adv-x="246" unicode="ё" d="M153 300v114q0 25 -7 34q-7 10 -23 10q-15 0 -23 -10q-7 -9 -7 -34v-114h60zM221 191v-89q0 -52 -18 -78q-23 -34 -76 -34q-51 0 -78 33q-24 29 -24 92v283v7q0 58 23 85q27 32 75 32t75 -32q23 -27 23 -85v-7v-156h-128v-137q0 -30 6 -38q8 -13 26 -13t26 13q6 12 6 39 v85h64zM98 614h-68v86h68v-86zM216 614h-68v86h68v-86z"/>
<glyph glyph-name="afii10099" horiz-adv-x="260" unicode="ђ" d="M98 0h-68v588h-60v58h60v54h68v-54h77v-58h-77v-101q9 12 23 21q23 14 47 14q34 0 50 -33q12 -24 12 -83v-439v-18q0 -62 -22 -85q-18 -20 -47 -20q-38 0 -58 10v60q18 -10 34 -10q10 0 14 4q11 8 11 55v426q0 43 -4 51q-6 17 -25 17q-20 0 -29 -21q-6 -15 -6 -35v-401z "/>
<glyph glyph-name="afii10100" horiz-adv-x="204" unicode="ѓ" d="M85 554l-19 18l103 152l58 -56zM98 0h-68v512h164v-58h-96v-454z"/>
<glyph glyph-name="afii10101" horiz-adv-x="243" unicode="є" d="M25 128v261q0 50 11 79q22 54 88 54q69 0 90 -56q9 -24 9 -61v-11v-70h-68v82q0 27 -5 37q-8 15 -26 15t-26 -15q-5 -10 -5 -37v-112h87v-58h-87v-134q0 -21 4 -32q6 -16 27 -16q20 0 27 16q4 9 4 31v96h68v-59q0 -72 -12 -98q-23 -50 -87 -50q-68 0 -89 49 q-10 24 -10 89z"/>
<glyph glyph-name="afii10102" horiz-adv-x="234" unicode="ѕ" d="M15 186h68v-82q0 -25 7 -37q9 -13 28 -13q20 0 27 16q6 12 6 44q0 65 -17 87l-65 84q-26 36 -34 52q-17 35 -17 75q0 28 11 54q9 21 27 35q28 21 65 21q43 0 68 -28q27 -29 27 -101v-37h-62v58q0 23 -9 34q-10 10 -25 10q-17 0 -26 -13q-8 -13 -8 -34q0 -37 24 -68 l71 -90q38 -48 38 -126q0 -56 -15 -86q-14 -27 -36 -39q-21 -12 -53 -12q-22 0 -44 9q-20 9 -36 34q-20 32 -20 88v65z"/>
<glyph glyph-name="afii10103" horiz-adv-x="128" unicode="і" d="M98 600h-68v100h68v-100zM98 0h-68v512h68v-512z"/>
<glyph glyph-name="afii10104" horiz-adv-x="176" unicode="ї" d="M166 614h-60v86h60v-86zM70 614h-60v86h60v-86zM122 0h-68v512h68v-512z"/>
<glyph glyph-name="afii10105" horiz-adv-x="128" unicode="ј" d="M98 600h-68v100h68v-100zM-15 -150v60h24q21 0 21 35v567h68v-552v-14q0 -48 -11 -67q-16 -29 -57 -29h-45z"/>
<glyph glyph-name="afii10106" horiz-adv-x="372" unicode="љ" d="M224 56h20q22 0 31 11q9 10 9 42v70q0 36 -6 48q-10 20 -36 20h-18v-191zM156 0v454h-37v-189q0 -167 -23 -214q-24 -51 -76 -51h-10v66l12 -1h1q17 0 26 33q7 25 8 97q1 60 1 168v149h166v-209h29q52 0 77 -33q22 -29 22 -87v-74q0 -66 -31 -91q-21 -18 -65 -18h-100z "/>
<glyph glyph-name="afii10107" horiz-adv-x="374" unicode="њ" d="M226 56h20q22 0 31 11q9 10 9 42v70q0 36 -6 48q-10 20 -36 20h-18v-191zM158 0v244h-60v-244h-68v512h68v-210h60v210h68v-209h29q52 0 77 -33q22 -29 22 -87v-74q0 -66 -31 -91q-21 -18 -65 -18h-100z"/>
<glyph glyph-name="afii10108" horiz-adv-x="260" unicode="ћ" d="M98 0h-68v588h-60v58h60v54h68v-54h77v-58h-77v-101q9 12 23 21q23 14 47 14q34 0 50 -33q12 -24 12 -83v-406h-68v389q0 43 -4 51q-6 17 -25 17q-20 0 -29 -21q-6 -15 -6 -35v-401z"/>
<glyph glyph-name="afii10109" horiz-adv-x="248" unicode="ќ" d="M115 554l-19 18l103 152l58 -56zM226 180v-133q0 -24 12 -44v-3h-72q-8 28 -8 50v133v5q0 35 -14 47q-11 9 -31 9h-15v-244h-68v512h68v-210h30q20 0 20 32v114q0 37 16 51q14 12 45 12h26v-60h-10q-12 0 -12 -17v-4v-104q0 -20 -10 -37q-9 -13 -24 -17v-3q21 -10 29 -21 q18 -21 18 -68z"/>
<glyph glyph-name="afii10110" horiz-adv-x="220" unicode="ў" d="M23 -147v61q11 -3 31 -3q26 0 34 15q3 6 3 15q0 5 -6 47l-75 524h68l33 -361h3l28 361h68l-61 -574q-4 -45 -21 -66q-21 -26 -59 -26q-26 0 -46 7zM147 700h60q1 -52 -31 -86q-28 -28 -67 -29q-39 1 -67 29q-32 34 -31 86h60q0 -25 4 -37q8 -25 35 -26q25 0 33 26 q4 12 4 37z"/>
<glyph glyph-name="afii10193" horiz-adv-x="256" unicode="џ" d="M30 512h68v-454h60v454h68v-512h-67v-110h-62v110h-67v512z"/>
<glyph glyph-name="afii10050" horiz-adv-x="237" unicode="Ґ" d="M113 0h-78v700h131v110h67v-184h-120v-626z"/>
<glyph glyph-name="afii10098" horiz-adv-x="204" unicode="ґ" d="M98 0h-68v512h106v91h58v-149h-96v-454z"/>
<glyph glyph-name="endash" horiz-adv-x="326" unicode="–" d="M10 236v62h306v-62h-306z"/>
<glyph glyph-name="emdash" horiz-adv-x="484" unicode="—" d="M10 236v62h464v-62h-464z"/>
<glyph glyph-name="quoteleft" horiz-adv-x="139" unicode="‘" d="M73 700h36l-33 -132h31v-120h-77v129z"/>
<glyph glyph-name="quotedblleft" horiz-adv-x="240" unicode="“" d="M73 700h36l-33 -132h31v-120h-77v129zM174 700h36l-33 -132h31v-120h-77v129z"/>
<glyph glyph-name="quotedblright" horiz-adv-x="240" unicode="”" d="M167 448h-36l33 132h-31v120h77v-129zM66 448h-36l33 132h-31v120h77v-129z"/>
<glyph glyph-name="dagger" horiz-adv-x="288" unicode="†" d="M180 -165h-72v602h-93v72h93v191h72v-191h93v-72h-93v-602z"/>
<glyph glyph-name="ellipsis" horiz-adv-x="380" unicode="…" d="M272 0v120h78v-120h-78zM151 0v120h78v-120h-78zM30 0v120h78v-120h-78z"/>
<glyph glyph-name="Euro" horiz-adv-x="304" unicode="€" d="M278 691v-74q-18 21 -61 21q-39 0 -58 -46.5t-21 -140.5h116l-13 -62h-106v-38v-36h90l-14 -62h-73q4 -191 78 -191q43 0 62 21v-76q-20 -16 -77 -16q-62 0 -95.5 61.5t-40.5 200.5h-49l13 62h31q-1 9 -1 36q0 25 1 38h-44l13 62h35q12 259 139 259q54 0 75 -19z"/>
<glyph glyph-name="trademark" horiz-adv-x="308" unicode="™" d="M278 450h-37v203h-2l-24 -203h-29l-24 203h-2v-203h-36v250h61l16 -152l16 152h61v-250zM77 450h-37v213h-36v37h108v-37h-35v-213z"/>
<glyph glyph-name="radical" horiz-adv-x="413" unicode="√" d="M273 699h135v-42h-90l-114 -657h-64l-64 375h-71v42h116l49 -333z"/>
<glyph glyph-name="infinity" horiz-adv-x="538" unicode="∞" d="M406 396h-63q-20 0 -34 -18q-9 -11 -9 -32q0 -20 11 -35q12 -15 31 -15h64q16 0 26 12q11 13 11 38t-11 38q-10 12 -26 12zM196 396h-64q-16 0 -26 -12q-11 -13 -11 -38t11 -38q10 -12 26 -12h64q18 0 31 15q10 11 10 35t-10 35q-13 15 -31 15zM68 426q25 25 71 25h51 q47 0 79 -41q32 41 79 41h51q46 0 71 -25q28 -28 28 -80t-28 -80q-25 -25 -71 -25h-51q-46 0 -79 39q-32 -39 -79 -39h-51q-46 0 -71 25q-28 28 -28 80t28 80z"/>
<glyph glyph-name="approxequal" d="M38 350v62q19 28 54 45q26 11 49 11q16 0 42 -15l63 -35q15 -9 38 -9q16 0 46 21l38 27v-62q-21 -17 -47 -30q-30 -14 -42 -14h-5q-14 0 -28 5q-21 8 -33 16l-53 29q-16 8 -33 8q-22 0 -42 -13q-22 -14 -47 -46zM42 204v62q19 29 53 45q24 11 50 11q13 0 41 -15l64 -35 q18 -10 37 -10q13 0 46 22l39 27v-62q-20 -15 -48 -30q-26 -14 -42 -14q-20 0 -32 5q-11 4 -33 16l-54 29q-19 8 -34 8q-21 0 -40 -13q-25 -16 -47 -46z" unicode="≈"/>
<glyph glyph-name="notequal" d="M148 101h-42l47 149h-113v60h131l26 87h-157v60h172l42 135h41l-41 -135h116v-60h-132l-25 -87h157v-60h-176z" unicode="≠"/>
<glyph glyph-name="lessequal" d="M370 212v-60l-330 179v28l330 179v-60l-247 -131zM370 81v-60l-330 179v60z" unicode="≤"/>
<glyph glyph-name="greaterequal" d="M40 212l247 135l-247 131v60l330 -179v-28l-330 -179v60zM40 81l330 179v-60l-330 -179v60z" unicode="≥"/>
</font>
</defs>
</svg>
